<svg width="57" height="17" viewBox="0 0 57 17" fill="none" xmlns="http://www.w3.org/2000/svg">
    <path fill-rule="evenodd" clip-rule="evenodd"
        d="M8.39777 12.7911C8.39777 12.12 8.4055 10.3264 8.38795 10.1054C8.40324 7.43638 6.34464 5.55363 5.04411 5.7004C4.14418 5.77402 3.38982 6.11994 2.98502 7.11505C2.60953 8.04246 2.94525 9.27602 4.19313 9.56548C5.52732 9.87633 6.30664 10.135 6.87052 10.4999C7.56145 10.9466 8.12549 11.8001 8.14046 12.7921"
        fill="#0060AF" />
    <path fill-rule="evenodd" clip-rule="evenodd"
        d="M7.83894 12.7921C7.84329 11.9319 7.33399 11.1713 6.66835 10.7625C6.0779 10.4013 5.28521 10.164 4.00642 9.85819C3.61112 9.76287 3.19763 9.55112 3.06962 9.28125C2.731 9.60288 2.66949 10.326 2.72907 10.7487C2.79831 11.2376 3.40454 12.0436 4.31734 12.0752C4.87478 12.0963 5.57955 11.9621 5.91753 11.8944C6.50057 11.7757 7.42304 12.1199 7.56988 12.791"
        fill="#0060AF" />
    <path fill-rule="evenodd" clip-rule="evenodd"
        d="M8.86824 1.54102C7.32039 1.54102 5.98362 2.50319 5.98829 4.16812C5.99312 5.56819 7.18755 6.31771 7.61392 6.85306C8.25799 7.6598 8.60659 8.61469 8.64266 10.0758C8.671 11.2386 8.66955 12.3869 8.67583 12.7938H9.01734C9.01155 12.368 8.99609 11.1491 9.01364 10.0398C9.03683 8.57826 9.39799 7.6598 10.0424 6.85306C10.4725 6.31771 11.6658 5.56819 11.6683 4.16812C11.6743 2.50319 10.338 1.54102 8.79176 1.54102"
        fill="#0060AF" />
    <path fill-rule="evenodd" clip-rule="evenodd"
        d="M9.26164 12.7911C9.26164 12.12 9.25359 10.3264 9.27082 10.1054C9.25569 7.43638 11.313 5.55363 12.6147 5.7004C13.5146 5.77402 14.268 6.11994 14.6741 7.11505C15.0491 8.04246 14.7116 9.27602 13.4653 9.56548C12.1302 9.87633 11.352 10.135 10.7866 10.4999C10.0965 10.9466 9.57192 11.8001 9.55582 12.7921"
        fill="#0060AF" />
    <path fill-rule="evenodd" clip-rule="evenodd"
        d="M9.81839 12.7921C9.81356 11.9319 10.3227 11.1713 10.9864 10.7625C11.5794 10.4013 12.3729 10.164 13.6506 9.85819C14.0467 9.76287 14.4597 9.55112 14.5855 9.28125C14.9257 9.60288 14.9872 10.326 14.9275 10.7487C14.8569 11.2376 14.2522 12.0436 13.341 12.0752C12.7838 12.0963 12.0752 11.9621 11.7387 11.8944C11.1579 11.7757 10.2329 12.1199 10.0854 12.791"
        fill="#0060AF" />
    <path fill-rule="evenodd" clip-rule="evenodd"
        d="M10.2955 15.5691L10.0977 14.2068L10.5757 14.1385C10.692 14.1236 10.8337 14.1428 10.8903 14.2114C10.953 14.2832 10.9721 14.3425 10.9842 14.4366C11.0024 14.5532 10.9667 14.6877 10.8275 14.7548V14.7589C10.9828 14.7589 11.0766 14.8641 11.104 15.0416C11.1079 15.0793 11.1198 15.1698 11.1079 15.2453C11.0763 15.4252 10.9626 15.4832 10.7704 15.5085L10.2955 15.5691ZM10.6041 15.3255C10.6608 15.3178 10.7183 15.3149 10.7632 15.2879C10.8321 15.2455 10.8259 15.1551 10.8162 15.0877C10.7924 14.94 10.7515 14.8837 10.5851 14.9069L10.4805 14.9221L10.5468 15.333L10.6041 15.3255ZM10.5028 14.6957C10.5661 14.6862 10.6517 14.6789 10.6875 14.6223C10.7063 14.5845 10.7302 14.5544 10.7144 14.4703C10.6949 14.3707 10.6599 14.3088 10.5255 14.3328L10.4004 14.3518L10.4498 14.7009L10.5028 14.6957Z"
        fill="#0060AF" />
    <path fill-rule="evenodd" clip-rule="evenodd"
        d="M12.3666 14.75C12.3703 14.7754 12.3746 14.8036 12.3762 14.829C12.4149 15.0773 12.3666 15.2831 12.0703 15.3397C11.6322 15.4191 11.5483 15.1627 11.4713 14.8036L11.4302 14.6092C11.3699 14.2657 11.3439 14.0055 11.771 13.9252C12.0117 13.8839 12.1708 13.9743 12.2369 14.2001C12.2472 14.2338 12.2601 14.267 12.265 14.301L12.003 14.352C11.9727 14.267 11.9326 14.1154 11.8148 14.1282C11.6032 14.1523 11.6731 14.4003 11.6948 14.5041L11.7735 14.8771C11.7972 14.9899 11.8442 15.17 12.0273 15.1353C12.1759 15.1072 12.111 14.8889 12.0978 14.7994"
        fill="#0060AF" />
    <path fill-rule="evenodd" clip-rule="evenodd"
        d="M12.7878 15.1619L12.6973 13.7521L13.0491 13.6509L13.787 14.877L13.5099 14.9552L13.3351 14.6436L13.0274 14.7307L13.0671 15.085L12.7878 15.1619ZM13.0007 14.5032L13.223 14.4425L12.9277 13.8721L13.0007 14.5032Z"
        fill="#0060AF" />
    <path fill-rule="evenodd" clip-rule="evenodd"
        d="M4.09429 14.0961C4.20443 13.7638 4.30297 13.519 4.72339 13.6277C4.94833 13.687 5.08777 13.7804 5.08117 14.0267C5.08004 14.0815 5.06088 14.1375 5.04832 14.1916L4.78667 14.1236C4.82096 13.9874 4.8427 13.8795 4.66494 13.8279C4.45948 13.7748 4.4094 14.0097 4.38107 14.1111L4.27463 14.4806C4.24082 14.5903 4.20024 14.7717 4.38107 14.8186C4.53049 14.8564 4.62098 14.7183 4.67508 14.5164L4.49217 14.4705L4.55545 14.2568L4.98585 14.3872L4.78151 15.0995L4.58346 15.0489L4.62807 14.8983H4.62243C4.53113 15.0215 4.42003 15.0344 4.32262 15.0167C3.89222 14.9071 3.93714 14.6419 4.03987 14.2876"
        fill="#0060AF" />
    <path fill-rule="evenodd" clip-rule="evenodd"
        d="M5.69677 14.6977L5.56715 15.2773L5.27539 15.2179L5.58631 13.8647L6.0837 13.9705C6.37481 14.0299 6.46273 14.1519 6.42151 14.4036C6.398 14.5479 6.32248 14.7034 6.13812 14.6908L6.13619 14.6885C6.29205 14.7398 6.30526 14.814 6.27804 14.942C6.26629 14.9966 6.1853 15.3272 6.24117 15.3806L6.2431 15.4213L5.9412 15.3469C5.92864 15.2554 5.97147 15.0906 5.98837 14.9992C6.00528 14.9184 6.03249 14.8046 5.94554 14.762C5.87759 14.7276 5.85215 14.7293 5.77519 14.7128L5.69677 14.6977ZM5.74609 14.4882L5.94253 14.5381C6.06185 14.5545 6.12819 14.4963 6.1517 14.3603C6.17295 14.2356 6.14542 14.1871 6.03834 14.1629L5.82773 14.1226L5.74609 14.4882Z"
        fill="#0060AF" />
    <path fill-rule="evenodd" clip-rule="evenodd"
        d="M7.56794 14.167L7.85648 14.1986L7.73217 15.15C7.67179 15.4516 7.54813 15.5834 7.19615 15.5422C6.83805 15.4994 6.75303 15.3458 6.77461 15.0418L6.89988 14.0913L7.19067 14.1226L7.06588 15.0518C7.05252 15.1527 7.02788 15.3023 7.21821 15.3205C7.38711 15.3326 7.42544 15.227 7.4446 15.0958"
        fill="#0060AF" />
    <path fill-rule="evenodd" clip-rule="evenodd"
        d="M8.17383 15.5942L8.26078 14.2339L8.815 14.2565C9.07713 14.2688 9.14557 14.4704 9.13751 14.6628C9.12979 14.7799 9.09114 14.9105 8.98294 14.9814C8.89422 15.0417 8.78006 15.056 8.67443 15.0511L8.49377 15.0417L8.4577 15.6118L8.17383 15.5942ZM8.50195 14.8343L8.6488 14.8421C8.76811 14.8462 8.84717 14.8017 8.85748 14.6366C8.86344 14.4781 8.79967 14.4511 8.6451 14.4447L8.52884 14.4409L8.50195 14.8343Z"
        fill="#0060AF" />
    <path fill-rule="evenodd" clip-rule="evenodd"
        d="M47.273 2.85542L45.0697 6.62547C44.238 5.98873 43.2226 5.52032 41.9269 5.52032C38.8607 5.52032 37.6151 7.67477 37.6151 9.19247C37.6151 10.3192 38.3976 11.9812 41.1259 11.9812C42.2712 11.9812 43.8991 11.2303 44.3676 10.8885L42.1886 15.2624C41.1499 15.4577 40.8085 15.5789 39.9294 15.6045C35.046 15.7419 33.0729 12.914 33.0742 10.0246C33.0776 6.20457 36.6802 1.55902 42.6528 1.55902C43.0186 1.55902 43.4663 1.67847 43.849 1.81068L44.2359 1.34424"
        fill="#0060AF" />
    <path fill-rule="evenodd" clip-rule="evenodd"
        d="M56.366 1.46289L56.9899 15.1647H52.3465L52.3439 12.8149H49.1775L48.1356 15.1647H43.0996L48.3645 5.38048L47.1774 5.37319L49.4329 1.46289H56.366ZM52.3135 5.65479L50.5234 9.64022H52.3676L52.3135 5.65479Z"
        fill="#0060AF" />
    <path fill-rule="evenodd" clip-rule="evenodd"
        d="M30.1434 1.46292C32.4429 1.47506 33.7423 2.6517 33.7423 4.35125C33.7423 5.91828 32.3719 7.30515 30.8675 8.02234C32.4164 8.5592 32.5503 9.8767 32.5503 10.8087C32.5503 13.0607 30.1534 15.1648 27.0376 15.1648H20.2422L22.8928 5.51681L21.8041 5.51089L24.0298 1.46292C24.0298 1.46292 28.2736 1.45077 30.1434 1.46292ZM27.887 7.01821C28.3627 7.01821 29.2026 6.90467 29.4125 6.03691C29.6426 5.09478 28.8544 5.06943 28.4764 5.06943L27.1254 5.06396L26.6543 7.01821H27.887ZM25.9775 9.43945L25.3555 11.6913H26.9463C27.572 11.6913 28.4249 11.3984 28.6339 10.6656C28.8404 9.93078 28.2441 9.43945 27.6207 9.43945H25.9775Z"
        fill="#0060AF" />
    <path fill-rule="evenodd" clip-rule="evenodd"
        d="M8.93 16.8482C6.57706 16.8482 4.15923 16.302 1.74446 15.2216L1.6852 15.1941L1.65686 15.1372C0.57322 12.9809 0 10.6226 0 8.31516C0 6.01105 0.549712 3.75354 1.634 1.60016L1.66395 1.54293L1.72433 1.5144C3.95812 0.516862 6.36097 0.0117188 8.86881 0.0117188C11.2047 0.0117188 13.6996 0.574085 16.0824 1.64114L16.1434 1.66679L16.1717 1.72508C17.276 3.92111 17.8584 6.27895 17.8584 8.5483C17.8584 10.8085 17.2992 13.0682 16.1935 15.2628L16.1645 15.3204L16.103 15.3471C13.9032 16.3287 11.4227 16.8482 8.93 16.8482ZM1.9683 14.9259C4.314 15.9662 6.65374 16.4914 8.93036 16.4914C11.3443 16.4914 13.7449 15.994 15.8821 15.0511C16.9437 12.9245 17.4818 10.7357 17.4818 8.54832C17.4818 6.35183 16.9202 4.0673 15.8578 1.93577C13.5454 0.911069 11.1305 0.367676 8.86917 0.367676C6.44136 0.367676 4.11418 0.853086 1.94802 1.81085C0.908169 3.89791 0.378906 6.08499 0.378906 8.31518C0.378906 10.5493 0.928779 12.8349 1.9683 14.9259Z"
        fill="#0060AF" />
</svg>