<svg width="60" height="32" viewBox="0 0 60 32" fill="none" xmlns="http://www.w3.org/2000/svg">
<path fill-rule="evenodd" clip-rule="evenodd" d="M20.0235 7.18941L20 7.64444L28.8029 17.8794L29.1191 17.9298L29.1589 17.9099L29.3134 17.6272L25.5591 5.17282L24.922 4.74719L20.0235 7.18941Z" fill="#0096B8"/>
<path fill-rule="evenodd" clip-rule="evenodd" d="M28.8029 17.8795L29.1187 17.9299L22.627 8.14138L20 7.64453L28.8029 17.8795Z" fill="#005675"/>
<path fill-rule="evenodd" clip-rule="evenodd" d="M24.9219 4.74707L22.6777 7.36551L23.5942 7.7626L25.5591 5.17313V5.17269L24.9219 4.74707Z" fill="#0BBBEF"/>
<path fill-rule="evenodd" clip-rule="evenodd" d="M23.5938 7.76286L29.1592 17.9101L29.3137 17.6265L25.5599 5.17383L23.5938 7.76286Z" fill="#007290"/>
<path fill-rule="evenodd" clip-rule="evenodd" d="M33.6555 4.77358L29.8906 21.6162L30.0234 21.9323L30.0864 21.9604L30.5128 21.8497L39.8541 7.82549L39.8438 7.09382L34.1513 4.5L33.6555 4.77358Z" fill="#81B73E"/>
<path fill-rule="evenodd" clip-rule="evenodd" d="M36.0609 8.1461L30.0859 21.9606L30.5112 21.8499L39.853 7.82568L36.0609 8.1461Z" fill="#69931D"/>
<path fill-rule="evenodd" clip-rule="evenodd" d="M29.8887 21.6157L30.0219 21.9318L34.9858 7.55992L33.6535 4.77441L29.8887 21.6157Z" fill="#277933"/>
<path fill-rule="evenodd" clip-rule="evenodd" d="M39.842 7.09473L35.8457 7.14591L36.0611 8.14659L39.8527 7.82595L39.8424 7.09473H39.842Z" fill="#AECC53"/>
<path fill-rule="evenodd" clip-rule="evenodd" d="M33.6543 4.77391L34.9853 7.55898L35.8459 7.14599L34.1501 4.50098L33.6543 4.77391Z" fill="#69931D"/>
<path fill-rule="evenodd" clip-rule="evenodd" d="M32.9694 0L25.6823 0.0777624L25.4551 0.510139L29.4815 12.012L29.7206 12.1714L29.7276 12.1725L29.9494 12.0455L33.4404 0.484L32.9694 0Z" fill="#E4032E"/>
<path fill-rule="evenodd" clip-rule="evenodd" d="M25.4551 0.510201L29.4815 12.0121L29.7193 12.1717L28.2788 1.90274L25.4551 0.509766V0.510201Z" fill="#791B15"/>
<path fill-rule="evenodd" clip-rule="evenodd" d="M29.6484 1.9043L29.7271 12.1722L29.9489 12.0443L33.4396 0.483887L29.6484 1.9043Z" fill="#B51227"/>
<path fill-rule="evenodd" clip-rule="evenodd" d="M38.6979 31.0378C38.7037 30.9172 38.7106 30.7248 38.7164 30.462V25.4037L38.7008 24.913C38.697 24.809 38.6923 24.7382 38.6872 24.7003C38.6821 24.6608 38.6741 24.6271 38.6633 24.5964C38.6268 24.4719 38.5471 24.3837 38.4272 24.3302C38.3163 24.2812 38.1521 24.2576 37.9395 24.2561V24.0844L40.6882 24.0835C41.0881 24.0852 41.4488 24.1121 41.7709 24.1671C42.0932 24.2206 42.3526 24.2953 42.5513 24.3907C43.1256 24.6774 43.4096 25.1597 43.4063 25.8446C43.4134 26.8254 42.7998 27.4507 41.5297 27.6123L41.3167 27.6484C41.6024 27.6595 41.9883 27.7587 42.1683 27.8029C42.3466 27.8462 42.5214 27.9147 42.693 28.0084C43.3668 28.3644 43.6989 28.933 43.6922 29.7208C43.6955 30.6763 43.2523 31.2968 42.3523 31.5905C42.1559 31.6498 41.9091 31.6961 41.6112 31.7302C41.312 31.7641 40.9879 31.7812 40.6373 31.782H37.9395V31.6096C38.2574 31.6054 38.4758 31.5544 38.5726 31.4347C38.6127 31.3945 38.6415 31.3496 38.6604 31.2984C38.6798 31.2465 38.6915 31.1574 38.6979 31.0378ZM39.5449 24.3204V27.5301H40.6177C41.865 27.5223 42.511 26.9781 42.5177 25.8878C42.5266 24.8292 41.8461 24.3126 40.5258 24.3204H39.5449ZM42.7329 29.6341C42.7253 28.8866 42.4682 28.3573 41.9549 28.0611C41.7988 27.9783 41.6011 27.9139 41.363 27.868C41.1258 27.8224 40.8633 27.7996 40.5767 27.7988H39.5449V31.5457H40.5767C41.3243 31.5489 41.8708 31.4023 42.2074 31.0952C42.3776 30.947 42.5072 30.7476 42.5971 30.4964C42.6867 30.2453 42.7313 29.9569 42.7329 29.6341Z" fill="black"/>
<path fill-rule="evenodd" clip-rule="evenodd" d="M47.6276 31.5621C47.5718 31.4463 47.5325 31.3084 47.516 30.9554L47.5107 30.8516L47.4447 30.9305C47.3661 31.0225 47.2888 31.1044 47.214 31.173C47.1379 31.2421 47.0496 31.3131 46.951 31.3848C46.7342 31.5526 46.525 31.6707 46.3247 31.7392C46.124 31.8078 45.8983 31.841 45.6466 31.8385C45.2081 31.841 44.8714 31.7314 44.6309 31.5164C44.4968 31.3895 44.3907 31.2297 44.3131 31.0358C44.2366 30.8421 44.1969 30.6343 44.1953 30.4105C44.2 29.5867 44.6811 29.0558 45.6658 28.8202C45.9261 28.7566 46.2012 28.7044 46.4907 28.6642C46.7806 28.6232 47.1101 28.5895 47.4777 28.5634L47.516 27.8451C47.516 27.5994 47.5051 27.4 47.4823 27.2488C47.4594 27.0954 47.4215 26.9615 47.3682 26.8488C47.2225 26.5495 46.9245 26.4063 46.4943 26.4063C45.8039 26.4021 45.4299 26.748 45.391 27.4339C45.3873 27.5434 45.3775 27.6208 45.3636 27.6663C45.3505 27.7105 45.3281 27.7427 45.2965 27.7663C45.2276 27.8152 45.1182 27.8429 44.9615 27.8451C44.6227 27.8499 44.496 27.7444 44.5017 27.5663C44.5038 27.3804 44.5627 27.2002 44.6804 27.0267C44.7989 26.8526 44.9633 26.7008 45.176 26.5724C45.5581 26.3495 46.0475 26.236 46.6477 26.2335C47.3046 26.236 47.7451 26.3918 47.9856 26.6912C48.0832 26.8166 48.1553 26.9724 48.2019 27.1608C48.249 27.3482 48.2728 27.5869 48.2724 27.8766L48.2715 27.9373L48.2662 28.2185L48.2519 28.9606L48.2416 29.9804L48.2314 30.4743C48.2325 30.7067 48.2416 30.8838 48.2574 31.0823C48.272 31.2752 48.3379 31.491 48.485 31.5478C48.638 31.6076 48.7858 31.6312 49.0667 31.633C49.273 31.6291 49.4318 31.6038 49.5395 31.5558C49.662 31.5015 49.7378 31.3848 49.7706 31.2194C49.8021 31.0587 49.8156 30.813 49.8127 30.4846V27.6057C49.8194 27.2135 49.776 26.9379 49.67 26.7937C49.5659 26.6535 49.3727 26.5928 49.1073 26.596V26.4423L50.5691 26.3312V27.5545L50.6452 27.4112C50.8613 27.007 51.1067 26.7204 51.3803 26.5488C51.6533 26.377 51.9955 26.291 52.4077 26.296C53.028 26.2865 53.4592 26.5046 53.7117 26.941C53.8047 27.0874 53.8718 27.263 53.912 27.4695C53.9521 27.6758 53.9728 27.939 53.9711 28.2602V30.4846C53.9675 30.8162 53.9806 31.0634 54.011 31.2242C54.0426 31.3895 54.1167 31.5053 54.24 31.5581C54.3422 31.603 54.5797 31.6267 54.782 31.632C54.9719 31.6267 55.1184 31.6013 55.219 31.5558C55.3385 31.5006 55.4111 31.384 55.4418 31.2194C55.4717 31.0581 55.4847 30.813 55.4808 30.4846V25.2547C55.4847 24.9547 55.4726 24.7326 55.4441 24.5891C55.4142 24.4392 55.3408 24.337 55.2208 24.292C55.1166 24.2535 54.9603 24.2354 54.7553 24.2345V24.0819L56.2754 24C56.2564 24.355 56.2421 24.7173 56.2319 25.0884C56.2221 25.475 56.2171 25.813 56.2171 26.1021V29.6156L57.8914 27.6876C58.1284 27.412 58.2582 27.1804 58.2601 26.9947C58.2719 26.7362 58.0241 26.6196 57.6163 26.5983V26.4455H59.7928V26.6006C59.6621 26.6164 59.5484 26.6417 59.4514 26.6764C59.3463 26.7141 59.2385 26.7684 59.1282 26.8385C59.0166 26.9093 58.9225 26.9749 58.8469 27.0339C58.7697 27.0945 58.6785 27.1811 58.5741 27.293C58.4695 27.405 58.3172 27.5743 58.1179 27.8019L57.5653 28.4272L59.012 30.8194C59.1774 31.1029 59.3293 31.3029 59.4688 31.4162C59.6021 31.5251 59.7721 31.595 59.9768 31.6282V31.7842H58.6533C58.6171 31.707 58.5669 31.6061 58.503 31.4825L58.2926 31.0785L58.1313 30.7743L57.0609 28.9408L56.2192 29.9309L56.2171 30.4846C56.2131 30.813 56.2259 31.0587 56.2564 31.2194C56.2874 31.3848 56.361 31.5006 56.4824 31.5558C56.5888 31.6038 56.7466 31.6291 56.9521 31.633V31.7842H52.4793V31.633C52.7822 31.6242 52.9905 31.5724 53.0737 31.4556C53.107 31.4109 53.1324 31.3596 53.1505 31.3021C53.1679 31.2446 53.179 31.1697 53.1841 31.0785C53.1901 31.0067 53.1962 30.9027 53.2029 30.7665C53.2105 30.6295 53.2142 30.5356 53.2149 30.4853V28.3248C53.2169 27.7924 53.1625 27.3979 53.0478 27.1472C52.873 26.7528 52.5583 26.555 52.1119 26.5533C51.6137 26.5518 51.2169 26.8008 50.9227 27.293C50.8118 27.479 50.7257 27.6909 50.6633 27.927C50.6019 28.1632 50.5696 28.3966 50.5691 28.625V30.4846C50.5653 30.8162 50.5783 31.0634 50.6086 31.2242C50.6401 31.3895 50.7143 31.5053 50.8377 31.5581C50.9456 31.6053 51.1056 31.6291 51.3148 31.633V31.7842H49.1148C48.9199 31.7912 48.5478 31.8015 48.3638 31.799C48.1704 31.796 48.0774 31.7747 47.9014 31.7606C47.7451 31.7124 47.6793 31.6699 47.6276 31.5621ZM45.0332 30.3783C45.0368 30.729 45.1179 31.0132 45.2797 31.2275C45.442 31.4433 45.6611 31.5543 45.9319 31.5591C46.2055 31.5553 46.4645 31.4802 46.7058 31.3355C46.947 31.1898 47.1376 30.9951 47.2751 30.7541C47.3591 30.6004 47.4203 30.4029 47.4586 30.1625C47.4968 29.9246 47.5157 29.6279 47.5157 29.2726V28.7212C47.0255 28.7661 46.675 28.8149 46.4206 28.8717C46.164 28.9284 45.9376 29.0096 45.74 29.1166C45.2719 29.3608 45.0368 29.7846 45.0332 30.3783Z" fill="black"/>
<path fill-rule="evenodd" clip-rule="evenodd" d="M1.99251 28.5417V30.4565C1.9887 30.7636 2.00556 30.9919 2.04272 31.1409C2.08042 31.2897 2.16127 31.3881 2.28653 31.4361C2.41124 31.4841 2.60356 31.5119 2.86224 31.5165V31.7843H0V31.5165C0.243625 31.5119 0.423988 31.4841 0.541631 31.4361C0.65855 31.3881 0.734139 31.2897 0.768761 31.1409C0.803021 30.9919 0.818792 30.7636 0.815166 30.4565V25.4219C0.818429 25.1146 0.803384 24.8862 0.770211 24.7373C0.736858 24.5876 0.663807 24.4885 0.552145 24.4388C0.440121 24.3891 0.268097 24.3601 0.0360725 24.3514V24.0836H2.76236C3.68139 24.0796 4.3548 24.2499 4.78224 24.5946C5.20985 24.9398 5.42121 25.4824 5.41613 26.2253C5.4194 27.2681 5.03275 27.9508 4.25674 28.2739C4.05444 28.3565 3.79631 28.4219 3.4829 28.4691C3.16876 28.5163 2.82 28.5409 2.43625 28.5417H1.99251ZM1.99219 28.243H2.46349C3.02959 28.2405 3.44596 28.1005 3.71334 27.8207C3.85853 27.6592 3.96856 27.4466 4.04397 27.1843C4.11865 26.9228 4.15672 26.6236 4.15708 26.2864C4.15418 25.0184 3.62542 24.3836 2.57225 24.3818H1.99219V28.243Z" fill="black"/>
<path fill-rule="evenodd" clip-rule="evenodd" d="M10.0248 28.8646H6.69492C6.69818 29.238 6.71903 29.5513 6.75709 29.8042C6.79498 30.0564 6.85607 30.2871 6.93981 30.4964C7.21643 31.174 7.64368 31.5126 8.22193 31.5126C8.5493 31.5103 8.84604 31.4094 9.11268 31.2086C9.37879 31.0079 9.60048 30.7187 9.77685 30.3431L10.0127 30.5069C9.78084 30.992 9.49752 31.348 9.16308 31.5757C8.82863 31.8025 8.42078 31.9153 7.93879 31.9128C7.1809 31.9025 6.48356 31.648 6.04706 31.1496C5.61021 30.6509 5.38761 29.9673 5.37891 29.1008C5.38761 28.2273 5.60295 27.5366 6.02477 27.0277C6.44622 26.5191 7.11927 26.2591 7.84471 26.248C8.32706 26.249 8.79292 26.3646 9.12356 26.5947C9.45419 26.8239 9.698 27.1602 9.85516 27.6029C9.90646 27.7494 9.94561 27.917 9.9719 28.1071C9.99836 28.296 10.0161 28.5488 10.0248 28.8646ZM6.70508 28.5676H8.78822C8.7797 28.2509 8.76375 27.9958 8.73982 27.8029C8.71644 27.609 8.67873 27.4366 8.62816 27.2846C8.45197 26.7459 8.18188 26.4789 7.81753 26.4835C7.40876 26.4876 7.10405 26.7884 6.90302 27.3869C6.85154 27.5421 6.81058 27.7122 6.77904 27.8966C6.74786 28.081 6.72302 28.3046 6.70508 28.5676Z" fill="black"/>
<path fill-rule="evenodd" clip-rule="evenodd" d="M10.2364 26.3945L12.0835 26.2606C12.0935 26.4545 12.1008 26.6166 12.1058 26.7482C12.1109 26.8806 12.1133 26.9962 12.1133 27.0972V27.4067C12.5146 26.6357 12.9993 26.2465 13.5674 26.2402C13.8129 26.245 14.0124 26.3204 14.1654 26.4654C14.3188 26.6111 14.3978 26.7978 14.4023 27.0248C14.3989 27.2138 14.3326 27.365 14.2035 27.4791C14.0746 27.5924 13.9049 27.6517 13.6952 27.6539C13.4429 27.6625 13.289 27.5532 13.2333 27.324C13.1969 27.1821 13.1594 27.0861 13.1202 27.0349C13.0814 26.9837 13.0243 26.96 12.9482 26.9625H12.9288C12.7354 26.9797 12.5521 27.1412 12.3783 27.4484C12.3 27.6012 12.2411 27.7698 12.2017 27.9547C12.1624 28.1399 12.1428 28.3534 12.1428 28.5945V30.5044C12.1388 30.8094 12.1532 31.0338 12.1851 31.1787C12.2168 31.3227 12.2893 31.4172 12.4017 31.4623C12.5146 31.5063 12.6899 31.5315 12.9288 31.537V31.7844H10.1973V31.537C10.4199 31.5378 10.585 31.5151 10.6919 31.4686C10.7996 31.4221 10.8689 31.3252 10.9008 31.1787C10.933 31.0305 10.9472 30.8061 10.9443 30.5044V27.6439C10.953 27.2183 10.9127 26.9419 10.8225 26.8143C10.7322 26.6867 10.537 26.6292 10.2364 26.6427V26.3945Z" fill="black"/>
<path fill-rule="evenodd" clip-rule="evenodd" d="M16.5979 26.2602L16.6078 27.2825C17.0057 26.5943 17.5756 26.2468 18.3176 26.2398C19.072 26.235 19.5373 26.5958 19.7126 27.3244C19.9258 26.9486 20.1698 26.6737 20.4433 26.4996C20.7169 26.324 21.0366 26.2373 21.4024 26.2398C21.9807 26.2428 22.4065 26.443 22.68 26.8383C22.7866 26.9888 22.8631 27.1714 22.9082 27.3882C22.9539 27.6053 22.976 27.8867 22.9747 28.2326V30.504C22.9713 30.8057 22.9858 31.0301 23.0177 31.1773C23.0496 31.3247 23.1194 31.4217 23.2263 31.4682C23.334 31.5147 23.499 31.5373 23.7216 31.5358V31.784H21.0585V31.5358C21.2715 31.5373 21.4296 31.5147 21.5327 31.4682C21.6361 31.4217 21.7033 31.3247 21.7338 31.1773C21.7653 31.0301 21.7791 30.8057 21.7762 30.504V28.2427C21.7785 27.7002 21.7147 27.3086 21.5859 27.0684C21.4566 26.8274 21.2482 26.7099 20.9603 26.7147C20.6148 26.7076 20.3231 26.8968 20.086 27.2825C19.8816 27.604 19.7797 27.9522 19.7811 28.3255V30.504C19.7782 30.8057 19.7922 31.0301 19.8234 31.1773C19.8549 31.3247 19.9229 31.4217 20.0273 31.4682C20.1321 31.5147 20.2921 31.5373 20.5086 31.5358V31.784H17.8751V31.5358C18.0879 31.5373 18.2462 31.5147 18.3495 31.4682C18.4526 31.4217 18.5197 31.3247 18.5503 31.1773C18.5815 31.0301 18.5958 30.8057 18.5922 30.504V28.2326C18.5973 27.2101 18.3321 26.7044 17.7964 26.7147C17.4633 26.7272 17.1837 26.8935 16.959 27.2126C16.7337 27.5324 16.6166 27.9308 16.6078 28.408V30.504C16.6048 30.8089 16.6185 31.0356 16.6497 31.1823C16.6807 31.3293 16.7476 31.4255 16.8507 31.4705C16.9541 31.5154 17.112 31.5373 17.3251 31.5358V31.784H14.6621V31.5358C14.8851 31.5373 15.0495 31.5154 15.1572 31.4705C15.2643 31.4255 15.3341 31.3293 15.366 31.1823C15.3981 31.0356 15.4124 30.8089 15.4088 30.504V27.6339C15.4193 27.2133 15.379 26.9415 15.2884 26.8171C15.1981 26.692 14.996 26.6345 14.682 26.6423V26.3941L16.5979 26.2602Z" fill="black"/>
<path fill-rule="evenodd" clip-rule="evenodd" d="M30.7081 26.7329V30.1813C30.7077 30.4056 30.7157 30.5915 30.7315 30.7388C30.7472 30.886 30.7722 31.0096 30.8063 31.1104C30.8476 31.2256 30.9122 31.3176 30.9988 31.3872C31.086 31.4555 31.1825 31.491 31.2874 31.4925C31.4975 31.4894 31.7266 31.3822 31.9757 31.1729L32.1131 31.4302C31.7185 31.7784 31.27 31.9502 30.7672 31.947C30.2248 31.9384 29.855 31.7485 29.6565 31.3792C29.6177 31.2973 29.5875 31.2043 29.5659 31.0988C29.5449 30.994 29.5296 30.8531 29.5213 30.6742C29.513 30.4961 29.5088 30.2559 29.5092 29.9542V26.7329H28.9492V26.4233C29.1635 26.4146 29.3446 26.3673 29.4934 26.2814C29.6424 26.195 29.772 26.0603 29.8829 25.8759C29.9698 25.7357 30.0415 25.5797 30.0976 25.4089C30.1539 25.2378 30.2034 25.0253 30.2464 24.7708L30.7378 24.7197C30.7313 24.8559 30.7253 24.9946 30.7211 25.1355C30.717 25.2757 30.7135 25.4451 30.7115 25.6426C30.7092 25.8403 30.7081 26.094 30.7081 26.402H31.8972V26.7329H30.7081Z" fill="black"/>
<path fill-rule="evenodd" clip-rule="evenodd" d="M28.9426 31.5659V31.784C28.6553 31.8038 28.5391 31.8038 28.2369 31.8038C27.9971 31.8038 27.7487 31.7996 27.5426 31.7186C27.4152 31.6682 27.3442 31.6249 27.249 31.5202C27.1826 31.4091 27.1404 31.4026 27.1192 31.0948C26.8654 31.383 26.6015 31.5941 26.3272 31.7304C26.0523 31.8659 25.7564 31.9329 25.4392 31.9314C24.9675 31.9259 24.5987 31.7895 24.3322 31.5209C24.0659 31.2523 23.9309 30.883 23.9258 30.4135C23.9242 29.5274 24.4482 28.9767 25.4977 28.7617C25.9712 28.6649 26.5081 28.5996 27.1094 28.5649V27.8939C27.1143 27.3565 27.0601 26.9842 26.9474 26.7769C26.8341 26.5697 26.6327 26.4706 26.343 26.4802C26.035 26.4729 25.8157 26.5902 25.6846 26.8306C25.6371 26.9141 25.6022 27.0085 25.5802 27.1165C25.5585 27.2236 25.5407 27.3723 25.5275 27.5638C25.5197 27.7482 25.4689 27.8788 25.375 27.9562C25.2813 28.0341 25.1323 28.0718 24.928 28.0702C24.4727 28.0664 24.2435 27.908 24.2403 27.5952C24.2417 27.4125 24.2956 27.2377 24.4014 27.0723C24.5069 26.9061 24.6565 26.7603 24.8497 26.6344C25.2587 26.3699 25.7959 26.239 26.4612 26.2422C27.1373 26.239 27.622 26.38 27.9152 26.6659C28.0473 26.7967 28.1443 26.9636 28.2063 27.1661C28.2684 27.3693 28.2989 27.6293 28.2982 27.9466L28.2882 28.8445L28.2786 29.7424C28.2706 30.0371 28.267 30.2228 28.2688 30.3C28.2652 30.6727 28.2764 30.9443 28.3022 31.1154C28.3281 31.287 28.3564 31.3626 28.4633 31.4556C28.6509 31.5683 28.8119 31.5651 28.9426 31.5659ZM27.1098 29.5984V28.8037C26.4063 28.8534 25.9072 28.9902 25.6125 29.2132C25.3183 29.4369 25.1751 29.785 25.184 30.2586C25.1869 30.6302 25.2594 30.9249 25.4015 31.1429C25.5431 31.3612 25.7361 31.4723 25.9798 31.4769C26.1797 31.4753 26.3642 31.4148 26.5337 31.2949C26.703 31.1761 26.8359 31.009 26.9329 30.7957C26.9959 30.665 27.0413 30.5058 27.0695 30.3167C27.0969 30.1277 27.1105 29.8883 27.1098 29.5984Z" fill="black"/>
<path fill-rule="evenodd" clip-rule="evenodd" d="M37.4037 31.5661V31.7842C37.1162 31.804 37.0002 31.8047 36.698 31.8047C36.458 31.8047 36.2102 31.8007 36.0036 31.7196C35.8761 31.6693 35.8053 31.6267 35.7103 31.5204C35.6438 31.4101 35.6013 31.4036 35.5803 31.0958C35.3265 31.3832 35.0626 31.595 34.7882 31.7314C34.5134 31.8661 34.2174 31.9339 33.9001 31.9324C33.4285 31.9267 33.0598 31.7897 32.7933 31.5219C32.527 31.2533 32.392 30.884 32.3867 30.4145C32.3853 29.5284 32.9093 28.9779 33.9589 28.7628C34.4323 28.6659 34.9693 28.6006 35.5703 28.5659V27.8948C35.5752 27.3577 35.521 26.9851 35.4083 26.7771C35.2952 26.5699 35.0936 26.4716 34.8039 26.4811C34.4961 26.4741 34.2766 26.5914 34.1456 26.8314C34.0981 26.915 34.0631 27.0095 34.0413 27.1175C34.0196 27.2246 34.0018 27.3733 33.9888 27.5647C33.9808 27.7484 33.93 27.879 33.836 27.9571C33.7424 28.035 33.5934 28.0727 33.389 28.0712C32.9338 28.0674 32.7047 27.9091 32.7012 27.5964C32.7027 27.4135 32.7565 27.2387 32.8624 27.0733C32.9679 26.9072 33.1176 26.7613 33.3106 26.6362C33.7198 26.3708 34.2571 26.24 34.9221 26.2432C35.5983 26.24 36.0832 26.3809 36.3763 26.6668C36.5084 26.7977 36.6054 26.9647 36.6672 27.167C36.7292 27.3703 36.76 27.6303 36.7591 27.9468L36.7493 28.8455L36.7397 29.7434C36.7317 30.0379 36.7281 30.2238 36.7297 30.3009C36.7263 30.6735 36.7375 30.9453 36.7631 31.1164C36.7892 31.288 36.8173 31.3638 36.9244 31.4566C37.1119 31.5693 37.273 31.5653 37.4037 31.5661ZM35.5707 29.5993V28.8037C34.8672 28.8542 34.3684 28.9911 34.0736 29.214C33.7787 29.4378 33.636 29.7858 33.6449 30.2593C33.648 30.6311 33.7205 30.9256 33.8624 31.1437C34.0042 31.362 34.1972 31.473 34.4407 31.4776C34.6408 31.4761 34.8253 31.4155 34.9948 31.2957C35.164 31.1769 35.297 31.0098 35.3936 30.7965C35.4571 30.6656 35.5024 30.5066 35.5303 30.3174C35.558 30.1285 35.5716 29.889 35.5707 29.5993Z" fill="black"/>
</svg>
