<svg width="62" height="15" viewBox="0 0 62 15" fill="none" xmlns="http://www.w3.org/2000/svg">
    <path fill-rule="evenodd" clip-rule="evenodd"
        d="M16.752 3.69092H20.0882C21.4393 3.69092 22.4465 4.28868 22.4465 5.54709C22.4465 6.46975 21.9796 6.98358 21.1685 7.25581V7.27656C22.1352 7.47634 22.634 8.00071 22.634 8.89145C22.634 10.6429 21.1059 11.0096 19.807 11.0096H16.752V3.69092ZM18.6836 6.58492H19.2245C19.8584 6.58492 20.5135 6.42758 20.5135 5.80843C20.5135 5.13822 19.8897 5.07471 19.2448 5.07471H18.6836V6.58492ZM18.6836 9.62566H19.2561C19.9622 9.62566 20.6999 9.52066 20.6999 8.77608C20.6999 7.9798 19.9416 7.90576 19.2764 7.90576H18.6836V9.62566Z"
        fill="#00529C" />
    <path fill-rule="evenodd" clip-rule="evenodd"
        d="M25.17 3.69092H27.5396L30.3353 11.0096H28.2149L27.6749 9.44773H24.952L24.3801 11.0096H22.416L25.17 3.69092ZM26.355 5.20117H26.3332L25.3984 8.06394H27.217L26.355 5.20117Z"
        fill="#00529C" />
    <path fill-rule="evenodd" clip-rule="evenodd"
        d="M30.6055 3.69092H33.0684L35.5212 8.66134H35.5414L35.5107 3.69092H37.2781V11.0096H34.8771L32.3405 6.00826H32.3206L32.3826 11.0096H30.6055V3.69092Z"
        fill="#00529C" />
    <path fill-rule="evenodd" clip-rule="evenodd"
        d="M37.9336 3.69092H39.8663V6.68007H39.8872L42.0689 3.69092H44.3977L41.7159 7.09847L44.6056 11.0096H42.1417L39.8872 7.68602H39.8663V11.0096H37.9336V3.69092Z"
        fill="#00529C" />
    <path fill-rule="evenodd" clip-rule="evenodd"
        d="M47.002 3.69092H50.3382C51.689 3.69092 52.6974 4.28868 52.6974 5.54709C52.6974 6.46975 52.2305 6.98358 51.4195 7.25581V7.27656C52.3858 7.47634 52.8847 8.00071 52.8847 8.89145C52.8847 10.6429 51.3568 11.0096 50.0583 11.0096H47.002V3.69092ZM48.9355 6.58492H49.4755C50.1098 6.58492 50.7639 6.42758 50.7639 5.80843C50.7639 5.13822 50.1411 5.07471 49.497 5.07471H48.9355V6.58492ZM48.9355 9.62566H49.5075C50.2135 9.62566 50.9518 9.52066 50.9518 8.77608C50.9518 7.9798 50.1933 7.90576 49.528 7.90576H48.9355V9.62566Z"
        fill="#00529C" />
    <path fill-rule="evenodd" clip-rule="evenodd"
        d="M53.3125 3.69092H56.763C58.0514 3.69092 59.1016 4.27783 59.1016 5.53688C59.1016 6.51188 58.6442 7.16198 57.7091 7.38188V7.40262C58.3313 7.57081 58.3737 8.12613 58.7375 9.01751L59.4445 11.0096H57.4285L57.0126 9.68932C56.6175 8.43092 56.3679 8.1156 55.6508 8.1156H55.2453V11.0096H53.3125V3.69092ZM55.2461 6.73173H55.7557C56.3792 6.73173 57.1694 6.71035 57.1694 5.88215C57.1694 5.20109 56.4931 5.07471 55.7557 5.07471H55.2461V6.73173Z"
        fill="#00529C" />
    <mask id="mask0_62_1080" style="mask-type:alpha" maskUnits="userSpaceOnUse" x="0" y="0" width="62" height="15">
        <path fill-rule="evenodd" clip-rule="evenodd" d="M0 14.7059H61.9102V0.00012207H0V14.7059Z" fill="white" />
    </mask>
    <g mask="url(#mask0_62_1080)">
        <path fill-rule="evenodd" clip-rule="evenodd" d="M59.9766 11.0096H61.9093V3.69092H59.9766V11.0096Z"
            fill="#00529C" />
        <path fill-rule="evenodd" clip-rule="evenodd"
            d="M12.3402 0H2.22346C0.99548 0 0 1.02926 0 2.29915V2.3234V12.4072C0 13.6647 0.977133 14.6869 2.1893 14.7057H12.3348C13.5631 14.7057 14.5589 13.6765 14.5589 12.4072L14.5637 2.29915C14.5637 1.02926 13.5685 0 12.3402 0ZM3.4269 13.5276L2.87491 13.5337C2.20682 13.5337 1.66527 12.98 1.66527 12.2967L1.66211 12.1994V2.86425L1.66559 2.36159C1.69058 1.70031 2.18848 1.16797 2.84074 1.16797H3.96275C4.97943 1.16797 5.80409 2.05999 5.80409 3.11254C5.80409 3.63276 5.60196 4.1051 5.27456 4.4485L2.4118 7.37925L5.09488 10.1357C5.44095 10.4954 5.65004 10.9684 5.65004 11.4864C5.65004 12.6139 4.65456 13.5276 3.4269 13.5276ZM11.6748 13.5184L6.6724 13.5162C6.6724 13.5162 7.25096 12.2549 7.25096 11.4742C7.25096 10.5225 6.93526 9.67201 6.44148 9.10935L4.73047 7.34956L6.47691 5.52914C6.99663 5.03605 7.34206 4.16095 7.34206 3.16425C7.34206 2.37499 7.12569 1.67573 6.77742 1.16797H7.98958C9.00657 1.16797 9.83123 2.05999 9.83123 3.11254C9.83123 3.63276 9.62942 4.1051 9.30202 4.4485L6.49399 7.34861L12.3261 13.3489C12.1414 13.4664 11.9082 13.5184 11.6748 13.5184ZM12.8964 11.6449L8.7168 7.34721L10.7074 5.30593C11.113 4.79498 11.3698 4.02487 11.3698 3.16412C11.3698 2.36976 11.1503 1.65359 10.7989 1.14551L11.6899 1.17232C12.358 1.17232 12.8996 1.727 12.8996 2.40998L12.8964 11.6449Z"
            fill="#00529C" />
    </g>
</svg>