<svg width="58" height="16" viewBox="0 0 58 16" fill="none" xmlns="http://www.w3.org/2000/svg">
<path fill-rule="evenodd" clip-rule="evenodd" d="M0 15.7968H15.9888V0H0V15.7968Z" fill="#820024"/>
<path fill-rule="evenodd" clip-rule="evenodd" d="M10.6568 2.98486H2.16016L5.92262 7.89761H14.42L10.6568 2.98486Z" fill="white"/>
<path fill-rule="evenodd" clip-rule="evenodd" d="M14.42 7.89795H5.92262L2.16016 12.8103H10.6568L14.42 7.89795Z" fill="#ED3124"/>
<path fill-rule="evenodd" clip-rule="evenodd" d="M54.48 11.1977H52.4082V8.7627H54.48C55.4464 8.7627 55.7922 9.38856 55.7922 9.97386C55.7922 10.5659 55.4464 11.1977 54.48 11.1977ZM52.4082 4.59766H54.3482C55.1621 4.59766 55.6468 5.02184 55.6468 5.73701C55.6468 6.44994 55.1621 6.87375 54.3482 6.87375H52.4082V4.59766ZM56.5336 7.76677C56.9984 7.51487 57.7607 6.80528 57.7607 5.64956C57.7607 3.84454 56.5144 2.72119 54.5078 2.72119H50.293V13.0721H54.6852C56.6715 13.0721 57.9064 11.9253 57.9064 10.0749C57.9064 8.68473 57.0809 8.03989 56.5336 7.76677ZM42.0621 9.33436C41.9826 9.20003 38.3618 2.70068 38.3618 2.70068H36.293V13.0523H38.407V6.8685C38.5678 7.13938 42.0621 13.136 42.0621 13.136C42.0621 13.136 45.5402 7.14013 45.6954 6.86999V13.0523H47.8116V2.70068H45.744C45.744 2.70068 42.1359 9.20003 42.0621 9.33436ZM31.582 13.0721H33.7036V2.72119H31.582V13.0721ZM28.0795 10.5789C27.4626 11.0655 26.7158 11.3216 25.9286 11.3216C24.0172 11.3216 22.5307 9.81829 22.5307 7.89792C22.5307 5.97718 24.0172 4.47281 25.9286 4.47281C26.7158 4.47281 27.4626 4.72918 28.0795 5.21662L28.1089 5.23969L29.583 3.78406L29.5495 3.75318C28.5409 2.89215 27.2573 2.41699 25.9286 2.41699C22.8362 2.41699 20.3203 4.87616 20.3203 7.89792C20.3203 10.9189 22.8362 13.3774 25.9286 13.3774C27.2573 13.3774 28.5409 12.9033 29.5495 12.0423L29.583 12.0099L28.1089 10.5558L28.0795 10.5789Z" fill="#820024"/>
</svg>
