<svg width="21" height="11" viewBox="0 0 21 11" fill="none" xmlns="http://www.w3.org/2000/svg">
<path d="M15.4434 3.17859V10.9427H17.5602V5.12391C17.5602 4.68933 17.2913 3.37645 15.4434 3.17859Z" fill="#0CA49D"/>
<path d="M4.19128 9.59148C4.46049 9.59148 4.68054 9.56203 4.85151 9.50315C5.02227 9.4442 5.15593 9.36801 5.25256 9.27445C5.34892 9.18089 5.41518 9.0752 5.45141 8.95736C5.48756 8.83971 5.50561 8.72013 5.50561 8.59887C5.50561 8.46031 5.48453 8.33556 5.44225 8.22458C5.40023 8.11372 5.32778 8.02028 5.22522 7.94397C5.12287 7.86777 4.98712 7.80883 4.81831 7.76725C4.6495 7.72572 4.43645 7.70487 4.17916 7.70487H2.75648V9.59148H4.19128ZM2.75648 4.65928V6.53032H3.81756C4.04253 6.53032 4.24562 6.5165 4.42648 6.48874C4.60721 6.46098 4.76107 6.41254 4.8876 6.34315C5.01412 6.27392 5.11075 6.17868 5.17701 6.05736C5.24327 5.9361 5.27653 5.78366 5.27653 5.60003C5.27653 5.41988 5.25034 5.26999 5.19815 5.15047C5.14583 5.0309 5.06543 4.93478 4.95696 4.86196C4.84848 4.78919 4.71071 4.73727 4.54405 4.70603C4.37726 4.67484 4.17916 4.65928 3.95021 4.65928H2.75648ZM3.95021 3.34436C4.55705 3.34436 5.07358 3.39297 5.49962 3.48989C5.92552 3.58699 6.27331 3.72376 6.54266 3.90048C6.8118 4.0772 7.00768 4.29208 7.13043 4.54493C7.25292 4.7979 7.31426 5.08026 7.31426 5.39212C7.31426 5.56187 7.28611 5.72564 7.23002 5.88325C7.17366 6.04098 7.08512 6.18815 6.96458 6.32497C6.84398 6.46191 6.68925 6.58746 6.50037 6.70187C6.31136 6.81616 6.08443 6.91495 5.8192 6.99799C6.39782 7.11931 6.82594 7.31502 7.10323 7.58536C7.38052 7.85558 7.51937 8.20559 7.51937 8.63517C7.51937 8.95736 7.44698 9.2572 7.30221 9.53433C7.15757 9.81158 6.94539 10.0532 6.66608 10.2593C6.38684 10.4655 6.04215 10.6266 5.63214 10.7427C5.22233 10.8588 4.754 10.9168 4.22757 10.9168H0.71875V3.34436H3.95021Z" fill="#0CA49D"/>
<path d="M13.6448 4.88278C13.5845 4.966 13.5214 5.02832 13.4549 5.0699C13.3886 5.11148 13.3032 5.13227 13.1987 5.13227C13.1063 5.13227 13.0068 5.10712 12.9003 5.05689C12.7939 5.00666 12.6732 4.95038 12.5386 4.88801C12.404 4.82564 12.2502 4.76931 12.0774 4.71907C11.9047 4.66884 11.7077 4.64375 11.4865 4.64375C11.1047 4.64375 10.8203 4.7139 10.6334 4.85427C10.4466 4.99452 10.353 5.18425 10.353 5.42334C10.353 5.57584 10.4094 5.70227 10.5219 5.80268C10.6343 5.90321 10.7822 5.98985 10.9651 6.06262C11.148 6.13533 11.357 6.20212 11.5921 6.26269C11.8272 6.32338 12.0673 6.39092 12.3125 6.46537C12.5576 6.53993 12.798 6.6274 13.033 6.72781C13.2681 6.82833 13.4772 6.9565 13.66 7.11243C13.8429 7.26836 13.9906 7.45803 14.1031 7.6815C14.2155 7.90497 14.2719 8.17444 14.2719 8.48966C14.2719 8.83974 14.2016 9.16716 14.061 9.47193C13.9202 9.77688 13.7162 10.0429 13.449 10.2698C13.1816 10.4968 12.8521 10.6751 12.4603 10.805C12.0684 10.9351 11.6231 11 11.1249 11C10.8515 11 10.5731 10.9757 10.2899 10.9273C10.0065 10.8787 9.73221 10.8103 9.46697 10.7219C9.2016 10.6335 8.95239 10.5288 8.71934 10.4075C8.48602 10.2863 8.28314 10.1511 8.11035 10.002L8.71321 9.18092C8.76156 9.12198 8.82472 9.07267 8.9031 9.03283C8.98148 8.993 9.06686 8.97308 9.15952 8.97308C9.27991 8.97308 9.40139 9.00595 9.52421 9.0718C9.64676 9.13766 9.78541 9.21037 9.94021 9.2901C10.0949 9.36984 10.2727 9.44255 10.4737 9.5084C10.6746 9.5742 10.9118 9.60713 11.1852 9.60713C11.5549 9.60713 11.8423 9.53692 12.0473 9.39667C12.2522 9.25631 12.3547 9.03371 12.3547 8.72882C12.3547 8.55204 12.2983 8.40836 12.1859 8.29738C12.0734 8.18657 11.9256 8.0947 11.7429 8.02188C11.5597 7.94917 11.3518 7.88505 11.1187 7.82965C10.8857 7.77431 10.6464 7.71275 10.4014 7.64509C10.1561 7.57755 9.91698 7.49444 9.68393 7.39572C9.45068 7.29693 9.24268 7.16702 9.06006 7.00592C8.87697 6.84477 8.72924 6.64383 8.61679 6.403C8.50434 6.16222 8.44798 5.86511 8.44798 5.51167C8.44798 5.22763 8.51423 4.95038 8.64695 4.68005C8.77967 4.40983 8.97448 4.16905 9.2317 3.95772C9.48899 3.74644 9.8046 3.57745 10.1782 3.4509C10.552 3.32447 10.9801 3.26123 11.4625 3.26123C11.7317 3.26123 11.994 3.27947 12.2493 3.31588C12.5044 3.35218 12.7466 3.40595 12.9757 3.47698C13.2049 3.548 13.4188 3.63291 13.6178 3.73163C13.8168 3.83042 13.9945 3.94209 14.1513 4.06684L13.6448 4.88278Z" fill="#0CA49D"/>
<path d="M17.7924 0.380207C17.7878 0.316732 17.7794 0.254244 17.7683 0.192627C18.242 0.614073 18.9184 0.861121 19.6509 0.821224C20.0013 0.80206 20.329 0.718897 20.6206 0.586313C20.3941 0.927094 20.2766 1.32682 20.3076 1.74809C20.3458 2.2696 20.6047 2.7335 21.0002 3.07764C20.7979 3.04251 20.5871 3.02898 20.3713 3.04083C19.5142 3.08752 18.7909 3.51541 18.4078 4.1206C18.2565 3.22602 17.4517 2.53058 16.4453 2.37756C17.2956 2.0193 17.8559 1.24499 17.7924 0.380207Z" fill="#F9AD3C"/>
</svg>
