<svg width="55" height="31" viewBox="0 0 55 31" fill="none" xmlns="http://www.w3.org/2000/svg">
    <path fill-rule="evenodd" clip-rule="evenodd"
        d="M18.5074 5.50729L18.1484 7.27585C21.6877 7.26231 32.8227 3.14685 33.34 0.691136C33.34 0.691531 33.374 0.530156 33.4074 0.36878C33.4407 0.207274 33.4734 0.0458984 33.4711 0.0458984C28.6474 3.31072 21.3596 5.50033 18.5074 5.50729ZM17.8323 8.55943L17.498 10.1878C20.9099 10.1807 32.1719 6.05838 32.6892 3.60332L32.832 2.90039C27.8439 6.37469 20.8579 8.47467 17.8323 8.55943ZM17.1043 11.5297L16.7578 13.2366L16.7599 13.2969C20.2098 13.2191 31.4209 9.16543 31.9371 6.71353L32.1073 5.87354C28.2412 8.5767 20.2179 11.5465 17.1043 11.5297Z"
        fill="url(#paint0_linear_301_7638)" />
    <path fill-rule="evenodd" clip-rule="evenodd"
        d="M0.0593191 16.983H1.35206V21.5249H1.38172C1.84229 20.7184 2.67419 20.1954 3.83327 20.1954C5.61663 20.1954 6.87866 21.6891 6.86338 23.8867C6.86338 26.4703 5.24478 27.7555 3.63963 27.7555C2.59946 27.7555 1.76729 27.3518 1.23303 26.3959H1.18808L1.12981 27.5912H0C0.0300515 27.0978 0.0593191 26.365 0.0593191 25.7234V16.983ZM1.35156 24.6923C1.35156 24.8566 1.38122 25.0201 1.41127 25.1704C1.66358 26.0812 2.421 26.7096 3.37181 26.7096C4.73863 26.7096 5.55577 25.5886 5.55577 23.93C5.55577 22.4808 4.81258 21.2404 3.41649 21.2404C2.52462 21.2404 1.69284 21.8533 1.42512 22.8549C1.39586 23.0043 1.35156 23.1826 1.35156 23.3924V24.6923Z"
        fill="#165781" />
    <path fill-rule="evenodd" clip-rule="evenodd"
        d="M13.3867 25.8575C13.3867 26.4857 13.4163 27.0978 13.5053 27.5911H12.3168L12.2126 26.6794H12.1683C11.7665 27.248 10.9937 27.7554 9.96969 27.7554C8.51323 27.7554 7.77148 26.7251 7.77148 25.6793C7.77148 23.9301 9.31574 22.9735 12.0935 22.9897V22.8393C12.0935 22.2421 11.9306 21.1662 10.4602 21.1662C9.79056 21.1662 9.09323 21.3746 8.58758 21.7045L8.28994 20.8377C8.88444 20.4496 9.74744 20.1954 10.6525 20.1954C12.8518 20.1954 13.3867 21.7045 13.3867 23.1531V25.8575ZM12.1239 23.9C10.6968 23.8697 9.07807 24.1247 9.07807 25.5283C9.07807 26.3804 9.64239 26.7847 10.3104 26.7847C11.247 26.7847 11.8409 26.1859 12.0489 25.5739C12.0935 25.4384 12.1239 25.2897 12.1239 25.1556V23.9Z"
        fill="#165781" />
    <path fill-rule="evenodd" clip-rule="evenodd"
        d="M15.3917 22.3156C15.3917 21.5688 15.3759 20.9576 15.332 20.3587H16.4898L16.5648 21.5541H16.5945C16.9514 20.8677 17.7833 20.1945 18.9721 20.1945C19.9661 20.1945 21.5118 20.7925 21.5118 23.2723V27.5903H20.204V23.4218C20.204 22.2559 19.7742 21.2845 18.5405 21.2845C17.6789 21.2845 17.0097 21.898 16.787 22.6302C16.7277 22.7937 16.6977 23.0183 16.6977 23.2436V27.5903H15.3917"
        fill="#165781" />
    <path fill-rule="evenodd" clip-rule="evenodd"
        d="M24.7209 23.6762H24.7505C24.9287 23.422 25.1808 23.1083 25.3897 22.8542L27.4991 20.359H29.0736L26.2956 23.3329L29.4592 27.5904H27.8705L25.3897 24.1247L24.7209 24.8715V27.5904H23.4277V16.983H24.7209"
        fill="#165781" />
    <path fill-rule="evenodd" clip-rule="evenodd"
        d="M40.2304 20.6151C40.1817 20.557 40.1333 20.498 40.0817 20.4451C39.9976 20.3566 39.9034 20.2741 39.803 20.196C39.2624 19.7513 38.6084 19.4897 37.9036 19.4897C37.1432 19.4897 36.4429 19.7968 35.8789 20.308C35.8625 20.3184 35.8482 20.3301 35.8318 20.3389C35.8117 20.3499 35.783 20.364 35.7497 20.355C35.6571 20.3309 35.5582 20.2314 35.5575 20.0893V17.1324C35.5575 16.9467 35.406 16.7965 35.2203 16.7965H33.7894C33.6027 16.7965 33.4523 16.9467 33.4523 17.1324V17.2346C33.4523 17.2392 33.4512 17.2421 33.4512 17.2457V17.5891L33.4538 27.1219C33.4538 27.3111 33.6061 27.4644 33.7935 27.4644H35.0888C35.1713 27.4644 35.2463 27.4335 35.305 27.3834C35.3074 27.3818 35.3101 27.3818 35.3112 27.3805C35.3133 27.3789 35.3137 27.3767 35.3152 27.3751C35.343 27.3509 35.3647 27.3215 35.3828 27.2898H35.3836C35.406 27.2479 35.4209 27.2036 35.4258 27.1544C35.4517 26.9437 35.5942 26.8274 35.6827 26.8575C35.7131 26.8671 35.742 26.8818 35.7717 26.9032C35.802 26.9223 35.8318 26.9421 35.861 26.9613C35.9488 27.0261 36.3348 27.2921 36.634 27.426C36.7848 27.4931 37.2652 27.6573 37.8228 27.6573C38.3808 27.6573 38.7772 27.533 38.8706 27.5077C38.9646 27.4828 39.0568 27.4512 39.1455 27.4098C39.5823 27.2214 39.9335 26.9613 40.2004 26.6329C40.4643 26.3103 40.6833 25.9281 40.86 25.4891C41.1237 24.9117 41.2737 24.2488 41.2737 23.5434C41.2737 22.3908 40.8726 21.3531 40.2304 20.6151ZM37.2757 26.1349C36.2271 26.1349 35.377 24.9986 35.377 23.5985C35.377 22.1978 36.2271 21.0621 37.2757 21.0621C38.3232 21.0621 39.1726 22.1978 39.1726 23.5985C39.1726 24.9986 38.3232 26.1349 37.2757 26.1349Z"
        fill="#165781" />
    <path fill-rule="evenodd" clip-rule="evenodd"
        d="M43.9061 16.8824C43.7011 16.8853 43.5206 16.9319 43.3653 17.0231C43.2134 17.1166 43.0951 17.2419 43.0113 17.395C42.9241 17.5512 42.8809 17.7228 42.8809 17.9135C42.8809 18.0976 42.9241 18.2641 43.0051 18.4174C43.0856 18.5698 43.201 18.692 43.3467 18.7854C43.496 18.8761 43.6699 18.9232 43.8692 18.9262C44.0929 18.9232 44.2824 18.8761 44.4377 18.7854C44.593 18.692 44.7107 18.5698 44.7917 18.4174C44.8726 18.2641 44.9126 18.0976 44.9126 17.9135C44.9126 17.7228 44.8697 17.5512 44.7885 17.395C44.708 17.2419 44.59 17.1166 44.4403 17.0231C44.2916 16.9319 44.1114 16.8853 43.9061 16.8824Z"
        fill="#165781" />
    <path fill-rule="evenodd" clip-rule="evenodd"
        d="M44.9983 20.3379C44.9968 20.3189 44.9951 20.2997 44.9935 20.2813V20.0286C44.9935 19.8387 44.8409 19.6847 44.6524 19.6847H43.2109C43.0216 19.6847 42.8686 19.8387 42.8686 20.0286V27.8412C42.8613 28.0401 42.6207 28.3126 42.3424 28.3803C42.2143 28.4201 42.0862 28.4385 41.9566 28.4326C41.8276 28.4283 41.7392 28.4804 41.6889 28.5902C41.6694 28.6388 41.6552 28.7044 41.6438 28.7845C41.6352 28.8642 41.6462 29.7015 41.6523 29.7708C41.6575 29.8408 41.6694 29.8997 41.6889 29.9498C41.7486 30.0395 41.853 30.0992 42.0009 30.1294C42.0504 30.15 43.0081 30.1523 43.6516 29.9954C43.9047 29.9343 44.1076 29.8112 44.277 29.6823C44.4441 29.552 44.5933 29.3878 44.723 29.1876C44.872 28.9488 44.9533 28.6476 44.9686 28.2838C44.9731 28.1741 44.9935 27.8876 44.9935 27.8537V20.7556C44.9951 20.7173 44.9961 20.6791 44.9983 20.6377C45.003 20.5382 45.003 20.4382 44.9983 20.3379Z"
        fill="#165781" />
    <mask id="mask0_301_7638" style="mask-type:alpha" maskUnits="userSpaceOnUse" x="46" y="16" width="9" height="12">
        <path fill-rule="evenodd" clip-rule="evenodd" d="M54.5096 27.6573V16.7965L46.6875 16.7965V27.6573H54.5096Z"
            fill="white" />
    </mask>
    <g mask="url(#mask0_301_7638)">
        <path fill-rule="evenodd" clip-rule="evenodd"
            d="M53.4662 20.6151C53.4183 20.557 53.37 20.498 53.3175 20.4451C53.2334 20.3566 53.1389 20.2741 53.0393 20.196C52.4987 19.7513 51.8447 19.4897 51.1394 19.4897C50.3795 19.4897 49.6797 19.7968 49.1159 20.308C49.0987 20.3184 49.0844 20.3301 49.0673 20.3389C49.0476 20.3499 49.02 20.364 48.9864 20.355C48.8938 20.3309 48.7945 20.2314 48.7929 20.0893V17.1324C48.7929 16.9467 48.6422 16.7965 48.4566 16.7965H47.0262C46.8393 16.7965 46.6885 16.9467 46.6885 17.1324V17.2346C46.6885 17.2392 46.6875 17.2421 46.6875 17.2457V17.5891L46.6893 27.1219C46.6893 27.3111 46.8419 27.4644 47.0301 27.4644H48.3241C48.4075 27.4644 48.4829 27.4335 48.5418 27.3834C48.5436 27.3818 48.5452 27.3818 48.547 27.3805C48.5491 27.3789 48.5499 27.3767 48.5519 27.3751C48.5781 27.3509 48.6013 27.3215 48.6194 27.2898L48.6202 27.2883C48.6422 27.2479 48.6572 27.2036 48.6619 27.1544C48.688 26.9437 48.8297 26.8274 48.9186 26.8575C48.9491 26.8671 48.979 26.8818 49.0084 26.9032C49.0375 26.9223 49.0673 26.9421 49.0976 26.9613C49.1848 27.0261 49.5714 27.2921 49.8701 27.426C50.021 27.4931 50.5006 27.6573 51.0593 27.6573C51.6166 27.6573 52.0124 27.533 52.1068 27.5077C52.2009 27.4828 52.2928 27.4512 52.3817 27.4098C52.8171 27.2214 53.1696 26.9613 53.4369 26.6329C53.7009 26.3103 53.9196 25.9281 54.0964 25.4891C54.3595 24.9117 54.5097 24.2488 54.5097 23.5434C54.5097 22.3908 54.108 21.3531 53.4662 20.6151ZM50.5136 26.1349C49.465 26.1349 48.6152 24.9986 48.6152 23.5985C48.6152 22.1978 49.465 21.0621 50.5136 21.0621C51.5615 21.0621 52.4109 22.1978 52.4109 23.5985C52.4109 24.9986 51.5615 26.1349 50.5136 26.1349Z"
            fill="#165781" />
    </g>
    <defs>
        <linearGradient id="paint0_linear_301_7638" x1="16.1176" y1="8.32802" x2="36.2905" y2="7.20092"
            gradientUnits="userSpaceOnUse">
            <stop stop-color="#2BA7DF" />
            <stop offset="0.40625" stop-color="#175882" />
            <stop offset="1" stop-color="#EBC71B" />
        </linearGradient>
    </defs>
</svg>