<svg width="58" height="17" viewBox="0 0 58 17" fill="none" xmlns="http://www.w3.org/2000/svg">
    <path fill-rule="evenodd" clip-rule="evenodd"
        d="M5.35167 12.6906L7.72728 15.6324H1.8457L5.35167 12.6906ZM4.6047 11.7816L0.00383957 15.6412L0.00195312 6.14905L4.6047 11.7816ZM15.676 2.22365C15.676 2.22365 14.666 1.74551 13.4926 1.81534C12.1512 1.89434 11.0289 2.4088 10.3838 3.08762C9.97779 3.51409 9.529 4.03434 9.30357 4.59935C8.97665 5.41671 8.90685 6.49672 8.90685 6.49672C8.90685 6.49672 8.43769 6.09853 7.84987 4.9382C7.16641 3.5886 6.97947 2.77105 6.88684 1.83837C6.8044 1.01988 6.93381 0.210571 6.93381 0.210571H15.676V2.22365ZM15.6743 4.91459V10.8997C15.6743 10.8997 15.1308 11.1085 14.6875 11.1085C14.2442 11.1085 13.4892 11.0427 12.6124 10.5607C11.742 10.0825 11.2602 9.50406 10.8867 8.97987C10.5079 8.44669 10.1951 7.70759 10.1021 7.17497C10.0274 6.74888 9.94684 5.68609 10.382 4.8223C10.6182 4.35352 11.2521 3.55002 12.4724 3.50434C13.4671 3.46615 14.0187 3.72768 14.5243 4.00513C15.4864 4.53418 15.6743 4.91459 15.6743 4.91459ZM6.15586 10.4794L7.73275 9.16503C7.2302 8.52309 7.09739 8.28121 6.5356 7.45243C5.96043 6.60418 5.47863 5.67094 5.06663 4.57594C4.62067 3.38978 4.51295 2.72387 4.56219 1.83837C4.62388 0.711734 4.88006 0.210571 4.88006 0.210571H0L0.00226374 2.84069C0.00226374 2.84069 3.73781 7.52208 6.15586 10.4794ZM10.6615 15.6279H15.6751V11.9723C15.6751 11.9723 14.4315 12.5427 13.6232 12.5887C13.142 12.6168 12.6749 12.6354 11.9212 12.4349C11.0835 12.2123 10.6075 11.9953 9.83104 11.3548C9.20738 10.8411 8.4943 10.0826 8.4943 10.0826L6.90818 11.405C7.64408 12.3051 8.18757 12.9604 8.35395 13.1367C9.06929 13.8927 9.37245 14.1705 9.85425 14.4399C10.3359 14.7098 11.945 14.6952 11.945 14.6952L10.6615 15.6279Z"
        fill="#E94E0F" />
    <path fill-rule="evenodd" clip-rule="evenodd"
        d="M53.5942 12.3761C53.5942 13.4353 53.737 15.1764 52.5508 15.6002V15.6708H57.056V15.6002C55.8706 15.1532 56.0128 13.4353 56.0128 12.3761V3.50476C56.0128 2.44608 55.8706 0.704649 57.056 0.25759V0.187012H52.5508V0.25759C53.7602 0.704649 53.5942 2.42249 53.5942 3.50476V12.3761ZM37.0732 3.50476L45.2066 13.7412C46.2496 15.0822 46.9851 15.8591 48.6686 16.4236V3.22244C48.6686 1.90485 48.6686 0.963373 49.902 0.25759V0.187012H45.7282V0.25759C46.9851 0.963373 46.961 1.90485 46.961 3.22244V12.141L38.2828 1.26928L37.9504 0.798628C37.7847 0.610482 37.69 0.492914 37.5952 0.2106V0.187012H34.1326V0.25759C35.3658 0.963373 35.3658 1.90485 35.3658 3.22244V12.612C35.3658 13.9294 35.3658 14.8705 34.1094 15.6002V15.6708H38.3065V15.6002C37.0496 14.8705 37.0732 13.9294 37.0732 12.612V3.50476ZM23.8164 6.4228V1.81069L25.4048 1.64557C26.8277 1.50441 28.345 2.35173 28.345 3.97559C28.345 5.90517 26.1398 6.4228 24.5989 6.4228H23.8164ZM23.8164 13.7884V7.97591L25.4759 7.88193C27.5627 7.76417 29.7915 8.75283 29.7915 11.0353C29.7915 13.2708 27.824 14.1649 25.8791 13.9768L23.8164 13.7884ZM21.3971 12.3527C21.3971 13.4353 21.5395 15.1532 20.3535 15.6002V15.6708H24.2662C26.0446 15.6708 27.9184 15.7416 29.5779 14.9414C31.1666 14.1883 32.4236 12.635 32.4236 10.823C32.4236 8.51731 30.6922 7.10519 28.5581 6.65775C29.9099 6.06973 30.9291 5.17561 30.9291 3.59892C30.9291 1.5046 29.1038 0.187012 25.974 0.187012H20.3535V0.25759C21.5635 0.704649 21.3971 2.42249 21.3971 3.48117V12.3527Z"
        fill="#005B6A" />
</svg>