<svg xmlns="http://www.w3.org/2000/svg" width="53" height="59.428" viewBox="0 0 53 59.428">
  <g id="Group_19" data-name="Group 19" transform="translate(-780 -344)">
    <path id="Path_19" data-name="Path 19" d="M818.51,388.352c5.009-8.307,11.34-19.987,11.34-25.99a18.362,18.362,0,1,0-36.724,0c0,6,6.33,17.683,11.339,25.99-5.943.449-19.465,2.062-19.465,7.411,0,5.263,13.729,7.665,26.5,7.665s26.5-2.4,26.5-7.665c-.012-5.349-13.548-6.962-19.49-7.411Zm-22.849-25.99a15.833,15.833,0,1,1,31.666,0c0,7.629-12.152,26.767-15.839,32.394-3.687-5.628-15.827-24.766-15.827-32.394Zm15.827,38.531c-15.512,0-23.965-3.4-23.965-5.143,0-1.346,5.579-4.245,18.434-4.984,2.414,3.893,4.245,6.646,4.488,6.974a1.3,1.3,0,0,0,2.1,0c.255-.3,2.074-3.081,4.488-6.974,12.855.74,18.434,3.626,18.434,4.984-.012,1.759-8.465,5.143-23.977,5.143Zm0,0" transform="translate(-5)" fill="#fe6701"/>
    <path id="Path_20" data-name="Path 20" d="M922.985,420.391a7.992,7.992,0,1,0-7.993,7.992,7.992,7.992,0,0,0,7.993-7.992Zm-13.462,0a5.47,5.47,0,1,1,5.469,5.47,5.471,5.471,0,0,1-5.469-5.47Zm0,0" transform="translate(-103.505 -58.029)" fill="#fe6701"/>
  </g>
</svg>
