<svg xmlns="http://www.w3.org/2000/svg" xmlns:xlink="http://www.w3.org/1999/xlink" width="35" height="33" viewBox="0 0 35 33">
  <defs>
    <clipPath id="clip-path">
      <rect id="Rectangle_55" data-name="Rectangle 55" width="35" height="33" transform="translate(0 -0.085)" fill="#fe6701" stroke="#fe6701" stroke-width="1.5"/>
    </clipPath>
  </defs>
  <g id="Group_24" data-name="Group 24" transform="translate(-747 -331.121)">
    <g id="Group_23" data-name="Group 23" transform="translate(747 331.205)">
      <g id="Group_22" data-name="Group 22" transform="translate(0 0)" clip-path="url(#clip-path)">
        <path id="Path_49" data-name="Path 49" d="M776.272,337.9h-.81v-.615a3.243,3.243,0,0,0-1.736-2.848,3.673,3.673,0,0,0-3.491,0,3.242,3.242,0,0,0-1.736,2.848v.615h-8.061v-.615a3.242,3.242,0,0,0-1.736-2.848,3.674,3.674,0,0,0-3.491,0,3.243,3.243,0,0,0-1.736,2.848v.615h-.81A3.565,3.565,0,0,0,749,341.351v17.622a3.565,3.565,0,0,0,3.666,3.447h23.607a3.566,3.566,0,0,0,3.666-3.447V341.351a3.566,3.566,0,0,0-3.666-3.447Zm-6.307-.615a1.876,1.876,0,0,1,1-1.651,2.126,2.126,0,0,1,2.022,0,1.877,1.877,0,0,1,1,1.651v2.585h-4.03v-2.585Zm-15.024,0a1.877,1.877,0,0,1,1-1.651,2.126,2.126,0,0,1,2.022,0,1.876,1.876,0,0,1,1,1.651v2.585h-4.03Zm-2.276,1.994h.81v1.28a.712.712,0,0,0,.733.689h5.5a.712.712,0,0,0,.733-.689v-1.28H768.5v1.28a.712.712,0,0,0,.733.689h5.5a.712.712,0,0,0,.733-.689v-1.28h.81a2.139,2.139,0,0,1,2.2,2.068v3.421H750.466v-3.421a2.139,2.139,0,0,1,2.2-2.068Zm23.607,21.759H752.666a2.14,2.14,0,0,1-2.2-2.068V346.151h28.005v12.822a2.14,2.14,0,0,1-2.2,2.068Zm0,0" transform="translate(-747 -331.44)" fill="#fe6701" stroke="#fe6701" stroke-width="1.5"/>
      </g>
    </g>
    <path id="Path_50" data-name="Path 50" d="M891.9,558.421l-6.146,5.877-3.117-3.117a.733.733,0,0,0-1.037,1.037l3.625,3.624a.733.733,0,0,0,1.025.011l6.664-6.372a.733.733,0,0,0-1.013-1.06Zm0,0" transform="translate(-122.684 -209.323)" fill="#fe6701" stroke="#fe6701" stroke-width="1.5"/>
  </g>
</svg>
