<svg xmlns="http://www.w3.org/2000/svg" width="72.438" height="77.267" viewBox="0 0 72.438 77.267">
  <g id="Group_21" data-name="Group 21" transform="translate(-719 -284)">
    <path id="Path_21" data-name="Path 21" d="M751.6,337.121H722.622A3.627,3.627,0,0,1,719,333.5V287.622A3.627,3.627,0,0,1,722.622,284H768.5a3.627,3.627,0,0,1,3.622,3.622v19.317a1.207,1.207,0,1,1-2.415,0V287.622a1.209,1.209,0,0,0-1.207-1.207H722.622a1.209,1.209,0,0,0-1.207,1.207V333.5a1.208,1.208,0,0,0,1.207,1.207H751.6a1.207,1.207,0,0,1,0,2.415Zm0,0" fill="#fe6701"/>
    <path id="Path_22" data-name="Path 22" d="M856.207,297.28A1.207,1.207,0,0,1,855,296.073V285.207a1.207,1.207,0,0,1,2.415,0v10.866a1.207,1.207,0,0,1-1.207,1.207Zm0,0" transform="translate(-115.476)" fill="#fe6701"/>
    <path id="Path_23" data-name="Path 23" d="M920.207,297.28A1.207,1.207,0,0,1,919,296.073V285.207a1.207,1.207,0,0,1,2.415,0v10.866a1.207,1.207,0,0,1-1.207,1.207Zm0,0" transform="translate(-169.818)" fill="#fe6701"/>
    <path id="Path_24" data-name="Path 24" d="M856.2,344.823a1.208,1.208,0,0,1-.542-2.288l4.829-2.415a1.208,1.208,0,1,1,1.081,2.16l-4.829,2.415a1.2,1.2,0,0,1-.538.128Zm0,0" transform="translate(-115.47 -47.543)" fill="#fe6701"/>
    <path id="Path_25" data-name="Path 25" d="M893.036,344.83a1.21,1.21,0,0,1-.538-.127l-4.829-2.415a1.208,1.208,0,1,1,1.081-2.16l4.829,2.415a1.207,1.207,0,0,1-.542,2.287Zm0,0" transform="translate(-142.648 -47.55)" fill="#fe6701"/>
    <path id="Path_26" data-name="Path 26" d="M772.28,558.415H760.207a1.207,1.207,0,0,1,0-2.415H772.28a1.207,1.207,0,0,1,0,2.415Zm0,0" transform="translate(-33.964 -230.952)" fill="#fe6701"/>
    <path id="Path_27" data-name="Path 27" d="M766.244,582.415h-6.036a1.207,1.207,0,0,1,0-2.415h6.036a1.207,1.207,0,0,1,0,2.415Zm0,0" transform="translate(-33.964 -251.33)" fill="#fe6701"/>
    <path id="Path_28" data-name="Path 28" d="M966.841,483.535H928.207A1.206,1.206,0,0,1,927,482.328V429.207A1.207,1.207,0,0,1,928.207,428h38.633a1.207,1.207,0,0,1,1.207,1.207v53.121a1.206,1.206,0,0,1-1.207,1.207Zm-37.426-2.415h36.219V430.415H929.415Zm0,0" transform="translate(-176.61 -122.269)" fill="#fe6701"/>
    <path id="Path_29" data-name="Path 29" d="M1009.409,435.238a1.208,1.208,0,0,1-1.17-.914l-1.207-4.829a1.207,1.207,0,1,1,2.343-.586l1.207,4.829a1.207,1.207,0,0,1-.879,1.465,1.228,1.228,0,0,1-.294.035Zm0,0" transform="translate(-244.533 -122.263)" fill="#fe6701"/>
    <path id="Path_30" data-name="Path 30" d="M1028.28,462.415h-12.073a1.207,1.207,0,0,1,0-2.415h12.073a1.207,1.207,0,0,1,0,2.415Zm0,0" transform="translate(-251.33 -149.44)" fill="#fe6701"/>
    <path id="Path_31" data-name="Path 31" d="M1096.207,435.232a1.171,1.171,0,0,1-.294-.036,1.209,1.209,0,0,1-.879-1.465l1.207-4.829a1.207,1.207,0,1,1,2.343.586l-1.207,4.829a1.208,1.208,0,0,1-1.17.915Zm0,0" transform="translate(-319.255 -122.257)" fill="#fe6701"/>
    <path id="Path_32" data-name="Path 32" d="M961.564,454.415h-9.357a1.207,1.207,0,1,1,0-2.415h9.357a1.207,1.207,0,0,1,0,2.415Zm0,0" transform="translate(-196.989 -142.647)" fill="#fe6701"/>
    <path id="Path_33" data-name="Path 33" d="M1107.564,454.415h-9.357a1.207,1.207,0,0,1,0-2.415h9.357a1.207,1.207,0,0,1,0,2.415Zm0,0" transform="translate(-320.955 -142.647)" fill="#fe6701"/>
    <path id="Path_34" data-name="Path 34" d="M1160.207,500.292a1.206,1.206,0,0,1-1.207-1.207V453.207a1.207,1.207,0,1,1,2.415,0v45.877a1.206,1.206,0,0,1-1.207,1.207Zm0,0" transform="translate(-373.599 -142.647)" fill="#fe6701"/>
    <path id="Path_35" data-name="Path 35" d="M983.6,758.415h-31.39a1.207,1.207,0,1,1,0-2.415H983.6a1.207,1.207,0,1,1,0,2.415Zm0,0" transform="translate(-196.989 -400.77)" fill="#fe6701"/>
    <path id="Path_36" data-name="Path 36" d="M952.207,500.292A1.206,1.206,0,0,1,951,499.084V453.207a1.207,1.207,0,1,1,2.415,0v45.877a1.206,1.206,0,0,1-1.207,1.207Zm0,0" transform="translate(-196.989 -142.647)" fill="#fe6701"/>
    <path id="Path_37" data-name="Path 37" d="M993.412,543.62a1.2,1.2,0,0,1-.854-.354l-1.207-1.207a1.207,1.207,0,0,1,1.707-1.707l1.207,1.207a1.207,1.207,0,0,1-.854,2.061Zm0,0" transform="translate(-230.95 -217.364)" fill="#fe6701"/>
    <path id="Path_38" data-name="Path 38" d="M1000.2,530.034a1.207,1.207,0,0,1-.854-2.061l3.622-3.622a1.207,1.207,0,1,1,1.707,1.707l-3.622,3.622a1.2,1.2,0,0,1-.854.354Zm0,0" transform="translate(-237.742 -203.779)" fill="#fe6701"/>
    <path id="Path_39" data-name="Path 39" d="M1065.866,526.415h-9.658a1.207,1.207,0,0,1,0-2.415h9.658a1.207,1.207,0,0,1,0,2.415Zm0,0" transform="translate(-285.294 -203.781)" fill="#fe6701"/>
    <path id="Path_40" data-name="Path 40" d="M1060.469,550.415h-3.508a1.207,1.207,0,0,1,0-2.415h3.508a1.207,1.207,0,0,1,0,2.415Zm0,0" transform="translate(-285.934 -224.159)" fill="#fe6701"/>
    <path id="Path_41" data-name="Path 41" d="M993.412,615.62a1.2,1.2,0,0,1-.854-.354l-1.207-1.207a1.207,1.207,0,0,1,1.707-1.707l1.207,1.207a1.207,1.207,0,0,1-.854,2.061Zm0,0" transform="translate(-230.95 -278.499)" fill="#fe6701"/>
    <path id="Path_42" data-name="Path 42" d="M1000.2,602.034a1.207,1.207,0,0,1-.854-2.061l3.622-3.622a1.207,1.207,0,1,1,1.707,1.707l-3.622,3.622a1.2,1.2,0,0,1-.854.354Zm0,0" transform="translate(-237.742 -264.913)" fill="#fe6701"/>
    <path id="Path_43" data-name="Path 43" d="M1065.866,598.415h-9.658a1.207,1.207,0,0,1,0-2.415h9.658a1.207,1.207,0,0,1,0,2.415Zm0,0" transform="translate(-285.294 -264.916)" fill="#fe6701"/>
    <path id="Path_44" data-name="Path 44" d="M1060.469,622.415h-3.508a1.207,1.207,0,0,1,0-2.415h3.508a1.207,1.207,0,0,1,0,2.415Zm0,0" transform="translate(-285.934 -285.294)" fill="#fe6701"/>
    <path id="Path_45" data-name="Path 45" d="M993.412,687.62a1.2,1.2,0,0,1-.854-.354l-1.207-1.207a1.207,1.207,0,0,1,1.707-1.707l1.207,1.207a1.207,1.207,0,0,1-.854,2.061Zm0,0" transform="translate(-230.95 -339.633)" fill="#fe6701"/>
    <path id="Path_46" data-name="Path 46" d="M1000.2,674.034a1.207,1.207,0,0,1-.854-2.061l3.622-3.622a1.207,1.207,0,0,1,1.707,1.707l-3.622,3.622a1.2,1.2,0,0,1-.854.354Zm0,0" transform="translate(-237.742 -326.048)" fill="#fe6701"/>
    <path id="Path_47" data-name="Path 47" d="M1065.866,670.415h-9.658a1.207,1.207,0,0,1,0-2.415h9.658a1.207,1.207,0,0,1,0,2.415Zm0,0" transform="translate(-285.294 -326.05)" fill="#fe6701"/>
    <path id="Path_48" data-name="Path 48" d="M1060.469,694.415h-3.508a1.207,1.207,0,0,1,0-2.415h3.508a1.207,1.207,0,0,1,0,2.415Zm0,0" transform="translate(-285.934 -346.428)" fill="#fe6701"/>
  </g>
</svg>
