<svg xmlns="http://www.w3.org/2000/svg" width="58.625" height="62.534" viewBox="0 0 58.625 62.534">
  <g id="Group_1286" data-name="Group 1286" transform="translate(-719 -284)">
    <path id="Path_21" data-name="Path 21" d="M745.381,326.992h-23.45A2.935,2.935,0,0,1,719,324.061V286.931A2.935,2.935,0,0,1,721.931,284h37.129a2.935,2.935,0,0,1,2.931,2.931v15.633a.977.977,0,1,1-1.954,0V286.931a.978.978,0,0,0-.977-.977H721.931a.978.978,0,0,0-.977.977v37.129a.978.978,0,0,0,.977.977h23.45a.977.977,0,1,1,0,1.954Zm0,0" transform="translate(0)" fill="#fe6701"/>
    <path id="Path_22" data-name="Path 22" d="M855.977,294.748a.977.977,0,0,1-.977-.977v-8.794a.977.977,0,1,1,1.954,0v8.794a.977.977,0,0,1-.977.977Zm0,0" transform="translate(-119.39)" fill="#fe6701"/>
    <path id="Path_23" data-name="Path 23" d="M919.977,294.748a.977.977,0,0,1-.977-.977v-8.794a.977.977,0,0,1,1.954,0v8.794a.977.977,0,0,1-.977.977Zm0,0" transform="translate(-175.573)" fill="#fe6701"/>
    <path id="Path_24" data-name="Path 24" d="M855.972,343.9a.978.978,0,0,1-.439-1.852l3.908-1.954a.977.977,0,1,1,.874,1.748l-3.908,1.954a.967.967,0,0,1-.435.1Zm0,0" transform="translate(-119.384 -49.154)" fill="#fe6701"/>
    <path id="Path_25" data-name="Path 25" d="M891.885,343.909a.978.978,0,0,1-.435-.1l-3.908-1.954a.977.977,0,1,1,.874-1.748l3.908,1.954a.977.977,0,0,1-.439,1.851Zm0,0" transform="translate(-147.482 -49.161)" fill="#fe6701"/>
    <path id="Path_26" data-name="Path 26" d="M769.748,557.954h-9.771a.977.977,0,0,1,0-1.954h9.771a.977.977,0,1,1,0,1.954Zm0,0" transform="translate(-35.115 -238.779)" fill="#fe6701"/>
    <path id="Path_27" data-name="Path 27" d="M764.863,581.954h-4.885a.977.977,0,0,1,0-1.954h4.885a.977.977,0,1,1,0,1.954Zm0,0" transform="translate(-35.115 -259.848)" fill="#fe6701"/>
    <path id="Path_28" data-name="Path 28" d="M959.244,472.946H927.977a.976.976,0,0,1-.977-.977V428.977a.977.977,0,0,1,.977-.977h31.267a.977.977,0,0,1,.977.977v42.992a.976.976,0,0,1-.977.977Zm-30.29-1.954h29.313V429.954H928.954Zm0,0" transform="translate(-182.596 -126.412)" fill="#fe6701"/>
    <path id="Path_29" data-name="Path 29" d="M1008.949,433.856a.978.978,0,0,1-.947-.74l-.977-3.908a.977.977,0,1,1,1.9-.474l.977,3.908a.977.977,0,0,1-.711,1.186,1,1,0,0,1-.238.028Zm0,0" transform="translate(-252.821 -126.406)" fill="#fe6701"/>
    <path id="Path_30" data-name="Path 30" d="M1025.748,461.954h-9.771a.977.977,0,0,1,0-1.954h9.771a.977.977,0,0,1,0,1.954Zm0,0" transform="translate(-259.848 -154.504)" fill="#fe6701"/>
    <path id="Path_31" data-name="Path 31" d="M1095.976,433.85a.949.949,0,0,1-.238-.029.979.979,0,0,1-.711-1.186l.977-3.908a.977.977,0,1,1,1.9.474l-.977,3.908a.977.977,0,0,1-.947.74Zm0,0" transform="translate(-330.075 -126.4)" fill="#fe6701"/>
    <path id="Path_32" data-name="Path 32" d="M959.55,453.954h-7.572a.977.977,0,1,1,0-1.954h7.572a.977.977,0,0,1,0,1.954Zm0,0" transform="translate(-203.665 -147.481)" fill="#fe6701"/>
    <path id="Path_33" data-name="Path 33" d="M1105.55,453.954h-7.573a.977.977,0,0,1,0-1.954h7.573a.977.977,0,0,1,0,1.954Zm0,0" transform="translate(-331.833 -147.481)" fill="#fe6701"/>
    <path id="Path_34" data-name="Path 34" d="M1159.977,491.083a.976.976,0,0,1-.977-.977V452.977a.977.977,0,1,1,1.954,0v37.129a.976.976,0,0,1-.977.977Zm0,0" transform="translate(-386.261 -147.481)" fill="#fe6701"/>
    <path id="Path_35" data-name="Path 35" d="M977.381,757.954h-25.4a.977.977,0,1,1,0-1.954h25.4a.977.977,0,1,1,0,1.954Zm0,0" transform="translate(-203.665 -414.352)" fill="#fe6701"/>
    <path id="Path_36" data-name="Path 36" d="M951.977,491.083a.976.976,0,0,1-.977-.977V452.977a.977.977,0,1,1,1.954,0v37.129a.976.976,0,0,1-.977.977Zm0,0" transform="translate(-203.665 -147.481)" fill="#fe6701"/>
    <path id="Path_37" data-name="Path 37" d="M992.952,542.929a.975.975,0,0,1-.691-.286l-.977-.977a.977.977,0,0,1,1.381-1.382l.977.977a.977.977,0,0,1-.691,1.668Zm0,0" transform="translate(-238.777 -224.731)" fill="#fe6701"/>
    <path id="Path_38" data-name="Path 38" d="M999.975,528.883a.977.977,0,0,1-.691-1.668l2.931-2.931a.977.977,0,0,1,1.381,1.382l-2.931,2.931a.975.975,0,0,1-.691.286Zm0,0" transform="translate(-245.8 -210.685)" fill="#fe6701"/>
    <path id="Path_39" data-name="Path 39" d="M1063.794,525.954h-7.817a.977.977,0,0,1,0-1.954h7.817a.977.977,0,0,1,0,1.954Zm0,0" transform="translate(-294.962 -210.688)" fill="#fe6701"/>
    <path id="Path_40" data-name="Path 40" d="M1059.57,549.954h-2.839a.977.977,0,0,1,0-1.954h2.839a.977.977,0,1,1,0,1.954Zm0,0" transform="translate(-295.624 -231.756)" fill="#fe6701"/>
    <path id="Path_41" data-name="Path 41" d="M992.952,614.929a.975.975,0,0,1-.691-.286l-.977-.977a.977.977,0,0,1,1.381-1.382l.977.977a.977.977,0,0,1-.691,1.668Zm0,0" transform="translate(-238.777 -287.937)" fill="#fe6701"/>
    <path id="Path_42" data-name="Path 42" d="M999.975,600.883a.977.977,0,0,1-.691-1.668l2.931-2.931a.977.977,0,0,1,1.381,1.382l-2.931,2.931a.974.974,0,0,1-.691.286Zm0,0" transform="translate(-245.8 -273.891)" fill="#fe6701"/>
    <path id="Path_43" data-name="Path 43" d="M1063.794,597.954h-7.817a.977.977,0,0,1,0-1.954h7.817a.977.977,0,0,1,0,1.954Zm0,0" transform="translate(-294.962 -273.894)" fill="#fe6701"/>
    <path id="Path_44" data-name="Path 44" d="M1059.57,621.954h-2.839a.977.977,0,0,1,0-1.954h2.839a.977.977,0,1,1,0,1.954Zm0,0" transform="translate(-295.624 -294.962)" fill="#fe6701"/>
    <path id="Path_45" data-name="Path 45" d="M992.952,686.929a.975.975,0,0,1-.691-.286l-.977-.977a.977.977,0,0,1,1.381-1.382l.977.977a.977.977,0,0,1-.691,1.668Zm0,0" transform="translate(-238.777 -351.143)" fill="#fe6701"/>
    <path id="Path_46" data-name="Path 46" d="M999.975,672.883a.977.977,0,0,1-.691-1.668l2.931-2.931a.977.977,0,0,1,1.381,1.382l-2.931,2.931a.975.975,0,0,1-.691.286Zm0,0" transform="translate(-245.8 -337.098)" fill="#fe6701"/>
    <path id="Path_47" data-name="Path 47" d="M1063.794,669.954h-7.817a.977.977,0,0,1,0-1.954h7.817a.977.977,0,0,1,0,1.954Zm0,0" transform="translate(-294.962 -337.1)" fill="#fe6701"/>
    <path id="Path_48" data-name="Path 48" d="M1059.57,693.954h-2.839a.977.977,0,0,1,0-1.954h2.839a.977.977,0,1,1,0,1.954Zm0,0" transform="translate(-295.624 -358.169)" fill="#fe6701"/>
  </g>
</svg>
