<svg xmlns="http://www.w3.org/2000/svg" width="44.691" height="53.629" viewBox="0 0 44.691 53.629">
  <g id="Group_1754" data-name="Group 1754" transform="translate(-207 -42.28)">
    <path id="Path_1677" data-name="Path 1677" d="M209.682,95.909h33.965a2.681,2.681,0,0,0,2.681-2.682V51.218H249.9a1.788,1.788,0,0,0,1.788-1.788V46.749a4.475,4.475,0,0,0-4.469-4.469h-37.54A2.681,2.681,0,0,0,207,44.962V93.228a2.681,2.681,0,0,0,2.682,2.682Zm37.54-51.842a2.682,2.682,0,0,1,2.682,2.682v2.681H214.15V46.749a4.423,4.423,0,0,0-.917-2.682Zm-38.434.894a.894.894,0,0,1,.894-.894,2.681,2.681,0,0,1,2.681,2.682v2.681a1.788,1.788,0,0,0,1.788,1.788h30.39v42.01a.894.894,0,0,1-.894.894H209.682a.894.894,0,0,1-.894-.894Zm0,0" fill="#fe6701"/>
    <path id="Path_1678" data-name="Path 1678" d="M259.987,179.218h5.363a1.788,1.788,0,0,0,1.788-1.788v-.894a.894.894,0,1,0-1.788,0v.894h-5.363v-5.363h2.682a.894.894,0,0,0,0-1.788h-2.682a1.788,1.788,0,0,0-1.788,1.788v5.363a1.788,1.788,0,0,0,1.788,1.788Zm0,0" transform="translate(-45.836 -114.593)" fill="#fe6701"/>
    <path id="Path_1679" data-name="Path 1679" d="M259.987,298.683h5.363a1.788,1.788,0,0,0,1.788-1.788v-5.363a1.788,1.788,0,0,0-1.788-1.788h-5.363a1.788,1.788,0,0,0-1.788,1.788V296.9a1.788,1.788,0,0,0,1.788,1.788Zm0-7.15h5.363V296.9h-5.363Zm0,0" transform="translate(-45.836 -221.544)" fill="#fe6701"/>
    <path id="Path_1680" data-name="Path 1680" d="M259.987,418.152h5.363a1.788,1.788,0,0,0,1.788-1.788V411a1.788,1.788,0,0,0-1.788-1.788h-5.363A1.788,1.788,0,0,0,258.2,411v5.363a1.788,1.788,0,0,0,1.788,1.788Zm0-7.15h5.363v5.363h-5.363Zm0,0" transform="translate(-45.836 -328.5)" fill="#fe6701"/>
    <path id="Path_1681" data-name="Path 1681" d="M370.027,189.134H374.5a.894.894,0,1,0,0-1.788h-4.469a.894.894,0,1,0,0,1.788Zm0,0" transform="translate(-145.15 -129.871)" fill="#fe6701"/>
    <path id="Path_1682" data-name="Path 1682" d="M446.828,189.134h8.938a.894.894,0,0,0,0-1.788h-8.938a.894.894,0,0,0,0,1.788Zm0,0" transform="translate(-213.907 -129.871)" fill="#fe6701"/>
    <path id="Path_1683" data-name="Path 1683" d="M370.027,223.267h8.938a.894.894,0,1,0,0-1.788h-8.938a.894.894,0,1,0,0,1.788Zm0,0" transform="translate(-145.15 -160.429)" fill="#fe6701"/>
    <path id="Path_1684" data-name="Path 1684" d="M493.965,221.479H489.5a.894.894,0,0,0,0,1.788h4.469a.894.894,0,0,0,0-1.788Zm0,0" transform="translate(-252.106 -160.429)" fill="#fe6701"/>
    <path id="Path_1685" data-name="Path 1685" d="M370.027,308.6H374.5a.894.894,0,1,0,0-1.788h-4.469a.894.894,0,1,0,0,1.788Zm0,0" transform="translate(-145.15 -236.826)" fill="#fe6701"/>
    <path id="Path_1686" data-name="Path 1686" d="M455.766,306.815h-8.938a.894.894,0,0,0,0,1.788h8.938a.894.894,0,0,0,0-1.788Zm0,0" transform="translate(-213.907 -236.826)" fill="#fe6701"/>
    <path id="Path_1687" data-name="Path 1687" d="M370.027,342.736h8.938a.894.894,0,1,0,0-1.788h-8.938a.894.894,0,1,0,0,1.788Zm0,0" transform="translate(-145.15 -267.384)" fill="#fe6701"/>
    <path id="Path_1688" data-name="Path 1688" d="M493.965,340.948H489.5a.894.894,0,0,0,0,1.788h4.469a.894.894,0,0,0,0-1.788Zm0,0" transform="translate(-252.106 -267.384)" fill="#fe6701"/>
    <path id="Path_1689" data-name="Path 1689" d="M370.027,428.068H374.5a.894.894,0,1,0,0-1.788h-4.469a.894.894,0,1,0,0,1.788Zm0,0" transform="translate(-145.15 -343.778)" fill="#fe6701"/>
    <path id="Path_1690" data-name="Path 1690" d="M455.766,426.28h-8.938a.894.894,0,0,0,0,1.788h8.938a.894.894,0,0,0,0-1.788Zm0,0" transform="translate(-213.907 -343.778)" fill="#fe6701"/>
    <path id="Path_1691" data-name="Path 1691" d="M370.027,462.2h8.938a.894.894,0,1,0,0-1.788h-8.938a.894.894,0,1,0,0,1.788Zm0,0" transform="translate(-145.15 -374.336)" fill="#fe6701"/>
    <path id="Path_1692" data-name="Path 1692" d="M493.965,460.413H489.5a.894.894,0,0,0,0,1.788h4.469a.894.894,0,0,0,0-1.788Zm0,0" transform="translate(-252.106 -374.336)" fill="#fe6701"/>
    <path id="Path_1693" data-name="Path 1693" d="M285.42,157.965a.894.894,0,0,0-1.264,1.264l1.788,1.788a.9.9,0,0,0,.632.262h.074a.9.9,0,0,0,.654-.372l4.469-6.257a.894.894,0,1,0-1.455-1.038l-3.855,5.4Zm0,0" transform="translate(-68.849 -99.334)" fill="#fe6701"/>
  </g>
</svg>
