<svg xmlns="http://www.w3.org/2000/svg" width="38" height="49.565" viewBox="0 0 38 49.565">
  <g id="Group_1886" data-name="Group 1886" transform="translate(-359 -321)">
    <path id="Path_1823" data-name="Path 1823" d="M399.174,362.7V351.391a5.754,5.754,0,0,0-4.3-5.584l-.7-2.115a.838.838,0,0,0-.785-.561h-5.386a9.029,9.029,0,0,0,2.082-5.783h.826a2.486,2.486,0,0,0,2.478-2.478v-1.652a2.486,2.486,0,0,0-2.478-2.478h-.826v-1.652a9.087,9.087,0,1,0-18.174,0v1.652h-.826a2.486,2.486,0,0,0-2.478,2.478v1.652a2.486,2.486,0,0,0,2.478,2.478h.826A9.11,9.11,0,0,0,374,343.13h-5.394a.838.838,0,0,0-.785.561l-.7,2.115a5.754,5.754,0,0,0-4.3,5.584V362.7a4.936,4.936,0,0,0-.826,2.734v1.652a2.486,2.486,0,0,0,2.478,2.478h33.043A2.486,2.486,0,0,0,400,367.087v-1.652a4.936,4.936,0,0,0-.826-2.734Zm-9.087-30.309h.826a.826.826,0,0,1,.826.826v1.652a.826.826,0,0,1-.826.826h-.826Zm-18.174,3.3h-.826a.826.826,0,0,1-.826-.826v-1.652a.826.826,0,0,1,.826-.826h.826Zm25.609,15.7v1.652H395.87v-4.13a.981.981,0,0,0-.041-.265l-.256-.76a4.125,4.125,0,0,1,1.95,3.5Zm0,3.3v6.452a4.953,4.953,0,0,0-1.652-.595V354.7ZM381,321.652a7.448,7.448,0,0,1,7.385,6.609H373.615A7.448,7.448,0,0,1,381,321.652Zm6.609,8.261-1.239,1.652H375.63l-1.239-1.652Zm-14.043,7.435v-5.783l.991,1.322a.837.837,0,0,0,.661.33h11.565a.837.837,0,0,0,.661-.33l.991-1.322v5.783a7.385,7.385,0,0,1-2.181,5.254,6.228,6.228,0,0,1-.611.529h-9.293a7.467,7.467,0,0,1-2.784-5.783Zm-4.362,7.435H392.8l1.1,3.3H368.1Zm14.275,4.957V354.7h-4.957v-4.957Zm-19,1.652a4.125,4.125,0,0,1,1.95-3.5l-.256.76a.98.98,0,0,0-.041.265v4.13h-1.652Zm0,3.3h1.652v5.857a4.952,4.952,0,0,0-1.652.595Zm5.783,12.391a.826.826,0,0,1-.826.826h-4.957a.826.826,0,0,1-.826-.826v-1.652a3.3,3.3,0,0,1,2.478-3.2v3.2a.826.826,0,0,0,.826.826h3.3Zm1.5.826a2.49,2.49,0,0,0,.148-.826v-.826h18.174v.826a2.492,2.492,0,0,0,.148.826Zm-3.982-3.3v-14.87h9.087v5.783a.826.826,0,0,0,.826.826H384.3a.826.826,0,0,0,.826-.826v-5.783h9.087v14.87Zm30.565,2.478a.826.826,0,0,1-.826.826h-4.957a.826.826,0,0,1-.826-.826v-.826h3.3a.826.826,0,0,0,.826-.826v-3.2a3.3,3.3,0,0,1,2.478,3.2Zm0,0" transform="translate(-3 1)" fill="#fc720e"/>
  </g>
</svg>
