<svg xmlns="http://www.w3.org/2000/svg" width="37.237" height="37.237" viewBox="0 0 37.237 37.237">
  <g id="Group_1672" data-name="Group 1672" transform="translate(-228 -403.55)">
    <path id="Path_1782" data-name="Path 1782" d="M290.255,725.1h-29.48a.776.776,0,1,1,0-1.552h29.48a.776.776,0,1,1,0,1.552Zm0,0" transform="translate(-28.897 -288.969)" fill="#fc720e"/>
    <path id="Path_1783" data-name="Path 1783" d="M290.255,549.1h-29.48a.776.776,0,0,1,0-1.552h29.48a.776.776,0,0,1,0,1.552Zm0,0" transform="translate(-28.897 -130.036)" fill="#fc720e"/>
    <path id="Path_1784" data-name="Path 1784" d="M431.637,623.962H420.776a.776.776,0,0,1-.776-.776V612.326a.776.776,0,0,1,.776-.776h10.861a.776.776,0,0,1,.776.776v10.861a.776.776,0,0,1-.776.776Zm-10.085-1.552h9.309V613.1h-9.309Zm0,0" transform="translate(-173.381 -187.83)" fill="#fc720e"/>
    <path id="Path_1785" data-name="Path 1785" d="M476.776,617.756a.776.776,0,0,1-.776-.776v-4.655a.776.776,0,1,1,1.552,0v4.655a.776.776,0,0,1-.776.776Zm0,0" transform="translate(-223.951 -187.83)" fill="#fc720e"/>
    <path id="Path_1786" data-name="Path 1786" d="M319.637,447.962H308.776a.776.776,0,0,1-.776-.776V436.326a.776.776,0,0,1,.776-.776h10.861a.776.776,0,0,1,.776.776v10.861a.776.776,0,0,1-.776.776Zm-10.085-1.552h9.309V437.1h-9.309Zm0,0" transform="translate(-72.242 -28.897)" fill="#fc720e"/>
    <path id="Path_1787" data-name="Path 1787" d="M364.776,441.756a.776.776,0,0,1-.776-.776v-4.655a.776.776,0,0,1,1.552,0v4.655a.776.776,0,0,1-.776.776Zm0,0" transform="translate(-122.812 -28.897)" fill="#fc720e"/>
    <path id="Path_1788" data-name="Path 1788" d="M302.085,638.411h-9.309a.776.776,0,0,1-.776-.776v-9.309a.776.776,0,0,1,.776-.776h9.309a.776.776,0,0,1,.776.776v9.309a.776.776,0,0,1-.776.776Zm-8.534-1.552h7.758V629.1h-7.758Zm0,0" transform="translate(-57.794 -202.278)" fill="#fc720e"/>
    <path id="Path_1789" data-name="Path 1789" d="M340.776,632.2a.776.776,0,0,1-.776-.776v-3.1a.776.776,0,1,1,1.552,0v3.1a.776.776,0,0,1-.776.776Zm0,0" transform="translate(-101.139 -202.278)" fill="#fc720e"/>
    <path id="Path_1790" data-name="Path 1790" d="M231.879,440.787h-3.1a.776.776,0,0,1-.776-.776V404.326a.776.776,0,0,1,.776-.776h3.1a.776.776,0,0,1,.776.776v35.686a.776.776,0,0,1-.776.776Zm-2.327-1.552H231.1V405.1h-1.552Zm0,0" fill="#fc720e"/>
    <path id="Path_1791" data-name="Path 1791" d="M567.879,440.787h-3.1a.776.776,0,0,1-.776-.776V404.326a.776.776,0,0,1,.776-.776h3.1a.776.776,0,0,1,.776.776v35.686a.776.776,0,0,1-.776.776Zm-2.327-1.552H567.1V405.1h-1.552Zm0,0" transform="translate(-303.417)" fill="#fc720e"/>
  </g>
</svg>
