<svg xmlns="http://www.w3.org/2000/svg" xmlns:xlink="http://www.w3.org/1999/xlink" width="39" height="39" viewBox="0 0 39 39">
  <defs>
    <clipPath id="clip-path">
      <rect id="Rectangle_1063" data-name="Rectangle 1063" width="39" height="39" fill="#fc720e"/>
    </clipPath>
  </defs>
  <g id="Group_1664" data-name="Group 1664" transform="translate(-172 -307)">
    <g id="Group_1663" data-name="Group 1663" transform="translate(172 307)">
      <g id="Group_1661" data-name="Group 1661" transform="translate(0)">
        <g id="Group_1660" data-name="Group 1660">
          <g id="Group_1659" data-name="Group 1659" clip-path="url(#clip-path)">
            <path id="Path_1768" data-name="Path 1768" d="M266.772,417.718l-3.984-5.313.156-1.088a1.143,1.143,0,0,0-.323-.97l-2.424-2.424,2.424-2.424A1.143,1.143,0,1,0,261,403.884l-2.424,2.424-2.424-2.424a1.143,1.143,0,0,0-.969-.323l-11.311,1.616a1.144,1.144,0,0,0-.646.323l-14,14a4.194,4.194,0,0,0,0,5.925l11.85,11.85a4.163,4.163,0,0,0,.789.618v.463a4.194,4.194,0,0,0,4.189,4.189h16.758A4.194,4.194,0,0,0,267,438.36V418.4a1.142,1.142,0,0,0-.229-.686Zm-35.931,6.1a1.906,1.906,0,0,1,0-2.693l13.735-13.735,10.368-1.481,2.02,2.02-1.616,1.616-.808-.808a1.142,1.142,0,0,0-1.615,1.616l3.231,3.232a1.143,1.143,0,0,0,1.616-1.616l-.808-.808,1.616-1.616,2.02,2.02-1.481,10.368-13.735,13.735a1.9,1.9,0,0,1-2.693,0Zm33.874,14.547a1.906,1.906,0,0,1-1.9,1.9H246.053a1.907,1.907,0,0,1-1.9-1.764A4.173,4.173,0,0,0,247,437.279l14-14a1.142,1.142,0,0,0,.323-.646l1-7.024,2.385,3.18Zm0,0" transform="translate(-228 -403.55)" fill="#fc720e"/>
          </g>
        </g>
      </g>
      <g id="Group_1662" data-name="Group 1662" transform="translate(9.827 12.49)">
        <path id="Path_1769" data-name="Path 1769" d="M324.754,526.721a18.7,18.7,0,0,1,2.834-.2,4.8,4.8,0,0,1,3.044.74,2.389,2.389,0,0,1,.866,1.969,2.5,2.5,0,0,1-1.662,2.318v.042a2.374,2.374,0,0,1,1.257,1.759c.293,1.061.586,2.29.768,2.653h-2.178a11.774,11.774,0,0,1-.656-2.192c-.251-1.173-.656-1.494-1.522-1.508h-.642v3.7h-2.108Zm2.108,4.049h.838c1.061,0,1.689-.531,1.689-1.354,0-.866-.586-1.3-1.564-1.312a5.312,5.312,0,0,0-.963.07Z" transform="translate(-324.754 -526.526)" fill="#fc720e"/>
        <path id="Path_1770" data-name="Path 1770" d="M406.47,553.579c0-.894-.028-1.662-.056-2.29h1.843l.1.949h.028a2.62,2.62,0,0,1,2.276-1.1c1.494,0,2.834,1.3,2.834,3.477,0,2.485-1.578,3.658-3.1,3.658a2.121,2.121,0,0,1-1.773-.782h-.028v3.393H406.47Zm2.122,1.606a2.12,2.12,0,0,0,.042.447,1.285,1.285,0,0,0,1.243,1.005c.921,0,1.466-.768,1.466-1.927,0-1.089-.489-1.913-1.438-1.913a1.333,1.333,0,0,0-1.271,1.075,1.648,1.648,0,0,0-.042.377Z" transform="translate(-398.12 -548.636)" fill="#fc720e"/>
      </g>
    </g>
  </g>
</svg>
