<svg xmlns="http://www.w3.org/2000/svg" xmlns:xlink="http://www.w3.org/1999/xlink" width="70" height="61" viewBox="0 0 70 61">
  <defs>
    <clipPath id="clip-path">
      <rect id="Rectangle_52" data-name="Rectangle 52" width="70" height="61" fill="#fe6701"/>
    </clipPath>
  </defs>
  <g id="Group_18" data-name="Group 18" transform="translate(-701 -307.336)">
    <g id="Group_17" data-name="Group 17" transform="translate(701 307.336)">
      <g id="Group_16" data-name="Group 16" transform="translate(0 0)" clip-path="url(#clip-path)">
        <path id="Path_15" data-name="Path 15" d="M1073.6,550.069a4.087,4.087,0,1,0-4.087-4.087,4.092,4.092,0,0,0,4.087,4.087Zm0-6.287a2.2,2.2,0,1,1-2.2,2.2,2.2,2.2,0,0,1,2.2-2.2Zm0,0" transform="translate(-1020.918 -511.039)" fill="#fe6701"/>
        <path id="Path_16" data-name="Path 16" d="M767.179,316.274a2.187,2.187,0,0,0-2.322.247l-6.845,5.365a1.569,1.569,0,0,1-1.941,0l-7.321-5.741a3.453,3.453,0,0,0-4.271,0l-6.426,5.042a12.2,12.2,0,0,0-24.408.019c0,.034,0,.066,0,.1l-6.086-4.779A2.2,2.2,0,0,0,704,318.256v29.563a.944.944,0,1,0,1.887,0V318.256a.315.315,0,0,1,.509-.248l6.823,5.358a3.434,3.434,0,0,0,.677.415q.1.5.232.973v39.83l-7.158-5.622a2.814,2.814,0,0,1-1.083-2.226v-4.514a.944.944,0,1,0-1.887,0v4.514a4.689,4.689,0,0,0,1.8,3.711l7.415,5.823a3.451,3.451,0,0,0,4.274,0l7.305-5.737a1.569,1.569,0,0,1,1.942,0l7.316,5.74a3.452,3.452,0,0,0,4.271,0l7.318-5.74a1.569,1.569,0,0,1,1.941,0l7.321,5.742a3.454,3.454,0,0,0,4.27,0l7.433-5.826a4.69,4.69,0,0,0,1.807-3.714V318.253a2.186,2.186,0,0,0-1.239-1.98Zm-20.953,26.116a7.849,7.849,0,1,1,15.7,0c0,3.885-2.493,6.511-4.9,9.051a25.041,25.041,0,0,0-2.935,3.477,24.547,24.547,0,0,0-2.961-3.514c-2.408-2.532-4.9-5.15-4.9-9.014Zm-20.376-31.5A10.329,10.329,0,0,1,736.167,321.2a11.352,11.352,0,0,1-.762,4.106.927.927,0,0,0-.12.3c-1.173,2.835-3.345,5.126-5.47,7.366a29.073,29.073,0,0,0-3.953,4.775,28.486,28.486,0,0,0-3.983-4.823c-2.413-2.538-4.888-5.143-5.886-8.532a.928.928,0,0,0-.035-.118,11.239,11.239,0,0,1-.424-3.078,10.328,10.328,0,0,1,10.317-10.316Zm2.055,48.161a3.461,3.461,0,0,0-1.132-.588V344.416a.944.944,0,0,0-1.887,0v14.009a3.459,3.459,0,0,0-1.253.625l-7.3,5.736a1.573,1.573,0,0,1-.312.19V328.852a37.217,37.217,0,0,0,4.495,5.38c1.96,2.063,3.813,4.01,4.437,6.057a.944.944,0,0,0,.9.668h.007a.943.943,0,0,0,.9-.656c.652-2.038,2.489-3.974,4.434-6.023a41.449,41.449,0,0,0,4.083-4.772V364.82l-.044-.032Zm9.257,5.739-.009.007V326.022a13.344,13.344,0,0,0,.667-2.323,3.508,3.508,0,0,0,.507-.33l7.3-5.723v19.92a9.674,9.674,0,0,0-1.284,4.822,10.639,10.639,0,0,0,1.284,5.064v11a3.458,3.458,0,0,0-1.142.591Zm29.369-8.053a2.815,2.815,0,0,1-1.084,2.228l-7.433,5.826a1.569,1.569,0,0,1-1.941,0l-7.321-5.741a3.465,3.465,0,0,0-1.242-.62v-8.2c.723.878,1.5,1.695,2.246,2.48,1.514,1.592,2.944,3.1,3.417,4.647a.943.943,0,0,0,.9.668h.007a.944.944,0,0,0,.9-.656c.494-1.546,1.913-3.041,3.415-4.623,2.541-2.677,5.422-5.713,5.422-10.35a9.73,9.73,0,0,0-16.3-7.183V317.574c.026.018.052.035.076.055l7.321,5.742a3.453,3.453,0,0,0,4.27,0l6.845-5.365a.314.314,0,0,1,.508.248Zm0,0" transform="translate(-701.39 -307.446)" fill="#fe6701"/>
      </g>
    </g>
    <path id="Path_17" data-name="Path 17" d="M818.493,355.524A8.493,8.493,0,1,0,810,347.032a8.5,8.5,0,0,0,8.493,8.493Zm0-15.1a6.605,6.605,0,1,1-6.605,6.605,6.613,6.613,0,0,1,6.605-6.605Zm0,0" transform="translate(-93.053 -25.933)" fill="#fe6701"/>
    <path id="Path_18" data-name="Path 18" d="M844.718,377.975A4.718,4.718,0,1,0,840,373.257a4.723,4.723,0,0,0,4.718,4.718Zm0-7.549a2.831,2.831,0,1,1-2.831,2.831,2.834,2.834,0,0,1,2.831-2.831Zm0,0" transform="translate(-119.279 -52.158)" fill="#fe6701"/>
  </g>
</svg>
