<svg xmlns="http://www.w3.org/2000/svg" xmlns:xlink="http://www.w3.org/1999/xlink" width="61" height="57" viewBox="0 0 61 57">
  <defs>
    <clipPath id="clip-path">
      <rect id="Rectangle_55" data-name="Rectangle 55" width="61" height="57" transform="translate(0 0.257)" fill="#fc720e"/>
    </clipPath>
  </defs>
  <g id="Group_1238" data-name="Group 1238" transform="translate(-956 -590.378)">
    <g id="Group_1284" data-name="Group 1284" transform="translate(209 259)">
      <g id="Group_23" data-name="Group 23" transform="translate(747 331.121)">
        <g id="Group_22" data-name="Group 22" transform="translate(0 0)" clip-path="url(#clip-path)">
          <path id="Path_49" data-name="Path 49" d="M796.532,340.8H795.12v-1.072a5.651,5.651,0,0,0-3.026-4.963,6.4,6.4,0,0,0-6.084,0,5.65,5.65,0,0,0-3.026,4.963V340.8H768.936v-1.072a5.651,5.651,0,0,0-3.026-4.963,6.4,6.4,0,0,0-6.084,0,5.651,5.651,0,0,0-3.025,4.963V340.8h-1.412A6.214,6.214,0,0,0,749,346.813v30.712a6.214,6.214,0,0,0,6.389,6.008h41.143a6.214,6.214,0,0,0,6.389-6.008V346.813a6.214,6.214,0,0,0-6.389-6.008Zm-10.991-1.072a3.269,3.269,0,0,1,1.75-2.877,3.706,3.706,0,0,1,3.524,0,3.271,3.271,0,0,1,1.75,2.877v4.5H785.54v-4.5Zm-26.184,0a3.271,3.271,0,0,1,1.75-2.877,3.706,3.706,0,0,1,3.524,0,3.269,3.269,0,0,1,1.75,2.877v4.5h-7.024Zm-3.968,3.476H756.8v2.23a1.241,1.241,0,0,0,1.278,1.2h9.58a1.241,1.241,0,0,0,1.278-1.2v-2.23h14.049v2.23a1.241,1.241,0,0,0,1.278,1.2h9.579a1.241,1.241,0,0,0,1.278-1.2v-2.23h1.412a3.728,3.728,0,0,1,3.833,3.6v5.962H751.555v-5.962a3.728,3.728,0,0,1,3.833-3.6Zm41.143,37.922H755.389a3.729,3.729,0,0,1-3.833-3.6V355.177h48.809v22.348a3.729,3.729,0,0,1-3.833,3.6Zm0,0" transform="translate(-745.514 -329.391)" fill="#fc720e"/>
        </g>
      </g>
      <path id="Path_50" data-name="Path 50" d="M899.716,558.572,889,568.814l-5.433-5.433a1.278,1.278,0,0,0-1.807,1.807l6.317,6.317a1.277,1.277,0,0,0,1.786.02l11.615-11.105a1.278,1.278,0,0,0-1.766-1.848Zm0,0" transform="translate(-113.988 -196.119)" fill="#fc720e"/>
    </g>
  </g>
</svg>
