<svg xmlns="http://www.w3.org/2000/svg" width="41.5" height="41.5" viewBox="0 0 41.5 41.5">
  <g id="Group_1666" data-name="Group 1666" transform="translate(-227.75 -403.3)">
    <path id="Path_1771" data-name="Path 1771" d="M233.754,521.442l3.855,1.927v4.79a.8.8,0,0,0,.8.8H246.9a.8.8,0,0,0,.8-.8V517.225a4.74,4.74,0,0,0-4.275-4.732c-.01,0-3.388-.53-4.954-2.1l-1.8-1.8a3.182,3.182,0,0,0-2.265-.938v-6.406a3.2,3.2,0,1,0-6.406,0v10.878a10.411,10.411,0,0,0,5.754,9.311ZM229.6,501.253a1.6,1.6,0,1,1,3.2,0v6.835a3.2,3.2,0,0,0-.663,5.039l4.1,4.1a.8.8,0,0,0,1.133-1.132l-4.1-4.1a1.6,1.6,0,0,1,.6-2.642h0a1.6,1.6,0,0,1,1.665.379l1.8,1.8c1.857,1.856,5.913,2.555,5.921,2.557a3.145,3.145,0,0,1,2.839,3.139v10.134h-6.887v-4.484a.8.8,0,0,0-.443-.716l-4.3-2.149a8.761,8.761,0,0,1-4.869-7.878Zm0,0" transform="translate(0 -84.41)" fill="#fc720e" stroke="#fc720e" stroke-width="0.5"/>
    <path id="Path_1772" data-name="Path 1772" d="M323.3,423.249H342.52a.8.8,0,0,0,.8-.8v-18.1a.8.8,0,0,0-.8-.8H323.3a.8.8,0,0,0-.8.8v18.1a.8.8,0,0,0,.8.8Zm7.207-18.1h4.8v4.315l-2.08-1.029a.8.8,0,0,0-.716,0l-2.009,1.015Zm-6.406,0h4.8v5.605a.8.8,0,0,0,1.162.715l2.813-1.421,2.877,1.424a.8.8,0,0,0,1.156-.718v-5.605h4.8v16.5H324.1Zm0,0" transform="translate(-84.41)" fill="#fc720e" stroke="#fc720e" stroke-width="0.5"/>
    <path id="Path_1773" data-name="Path 1773" d="M433.105,535.55h-4.8a.8.8,0,0,0,0,1.6h4.8a.8.8,0,0,0,0-1.6Zm0,0" transform="translate(-178.199 -117.906)" fill="#fc720e" stroke="#fc720e" stroke-width="0.5"/>
    <path id="Path_1774" data-name="Path 1774" d="M566.352,692.351a.8.8,0,1,1-.8-.8.8.8,0,0,1,.8.8Zm0,0" transform="translate(-300.795 -257.25)" fill="#fc720e" stroke="#fc720e" stroke-width="0.5"/>
    <path id="Path_1775" data-name="Path 1775" d="M444,498.05a3.207,3.207,0,0,0-3.2,3.2v6.406a3.182,3.182,0,0,0-2.265.938l-1.8,1.8a10.177,10.177,0,0,1-4.9,2.091l-.053.006a4.741,4.741,0,0,0-4.281,4.732v10.935a.8.8,0,0,0,.8.8h8.488a.8.8,0,0,0,.8-.8v-4.79l2.621-1.311a.8.8,0,0,0-.716-1.433l-3.064,1.532a.8.8,0,0,0-.442.716v4.484H429.1V517.225a3.147,3.147,0,0,1,2.845-3.14l.053-.005a11.767,11.767,0,0,0,5.862-2.551l1.8-1.8a1.6,1.6,0,0,1,1.665-.378h0a1.6,1.6,0,0,1,.6,2.643l-4.1,4.1a.8.8,0,0,0,1.133,1.132l4.1-4.1a3.2,3.2,0,0,0-.663-5.039v-6.835a1.6,1.6,0,1,1,3.2,0v10.878a8.829,8.829,0,0,1-1.069,4.207.8.8,0,0,0,1.407.765,10.44,10.44,0,0,0,1.264-4.971V501.253a3.207,3.207,0,0,0-3.2-3.2Zm0,0" transform="translate(-178.199 -84.41)" fill="#fc720e" stroke="#fc720e" stroke-width="0.5"/>
  </g>
</svg>
