<svg xmlns="http://www.w3.org/2000/svg" width="44.094" height="36.182" viewBox="0 0 44.094 36.182">
  <g id="Group_1667" data-name="Group 1667" transform="translate(-228 -438.55)">
    <path id="Path_1776" data-name="Path 1776" d="M268.927,671.3a.861.861,0,0,0-1.213.107l-2.153,2.571-.779-.659a.861.861,0,0,0-1.113,1.314l1.439,1.219a.861.861,0,0,0,.557.2c.024,0,.049,0,.073,0a.862.862,0,0,0,.587-.3l2.71-3.235a.862.862,0,0,0-.108-1.213Zm0,0" transform="translate(-31.303 -205.85)" fill="#fc720e"/>
    <path id="Path_1777" data-name="Path 1777" d="M270.27,452.172h-1.238c-1.037-.048-1.87-.931-2.835-1.953a12.4,12.4,0,0,0-2.166-1.956V440.9a2.354,2.354,0,0,0-2.351-2.352H233.589a2.354,2.354,0,0,0-2.352,2.352v5.974a.861.861,0,1,0,1.722,0V440.9a.638.638,0,0,1,.629-.629h9.53v7.62a.861.861,0,0,0,1.317.73l3.2-2,3.2,2a.861.861,0,0,0,1.318-.73v-7.62h9.53a.638.638,0,0,1,.629.629v6.632a4.716,4.716,0,0,0-.885-.1h-4.881a2.11,2.11,0,0,0-1.836.879,2.479,2.479,0,0,0-.107,2.319,3.656,3.656,0,0,0,.288.587h-6.531a2.544,2.544,0,0,0-2.407,3.369h-.229a2.545,2.545,0,0,0,0,5.09h.228a3.416,3.416,0,0,1,2.136,4.192,2.548,2.548,0,0,0,2.545,2.545H261.3a4.137,4.137,0,0,0,1.01-.122v2.7a.639.639,0,0,1-.629.632H241.731a6.995,6.995,0,0,0-8.771-8.583v-6.42a.861.861,0,1,0-1.722,0v7.217a7,7,0,1,0,9.749,9.509h20.693a2.356,2.356,0,0,0,2.352-2.354v-3.546c.19-.136.372-.275.548-.411a3.838,3.838,0,0,1,2.463-1.092h3.228a1.824,1.824,0,0,0,1.824-1.821V454a1.826,1.826,0,0,0-1.824-1.824Zm-19.843-5.834-2.335-1.46a.862.862,0,0,0-.913,0l-2.337,1.461v-6.066h5.585ZM235,473.009a5.275,5.275,0,1,1,5.273-5.277A5.281,5.281,0,0,1,235,473.009Zm35.375-10.889a.1.1,0,0,1-.1.1h-3.228a5.4,5.4,0,0,0-3.514,1.451,3.528,3.528,0,0,1-2.23,1.022h-10.67a.822.822,0,1,1,0-1.644h2.859a.861.861,0,0,0,0-1.722h-5.131a.824.824,0,0,1,0-1.647h5.131a.861.861,0,1,0,0-1.722H245.72a.822.822,0,0,1,0-1.645h7.767a.861.861,0,1,0,0-1.722h-5.131a.823.823,0,0,1,0-1.647h12.727a.861.861,0,1,0,0-1.722h-3.118a1.869,1.869,0,0,1-1.759-1.2c-.164-.426-.119-.668-.073-.737a.6.6,0,0,1,.429-.12H261.4c1.452.029,2.468,1.106,3.544,2.245,1.126,1.192,2.289,2.425,4.036,2.492h1.289a.1.1,0,0,1,.1.1Zm0,0" transform="translate(0 0)" fill="#fc720e"/>
    <path id="Path_1778" data-name="Path 1778" d="M257.052,538.99a.862.862,0,1,0-.861-.864v0a.859.859,0,0,0,.861.859Zm0,0" transform="translate(-24.954 -87.38)" fill="#fc720e"/>
  </g>
</svg>
