<svg xmlns="http://www.w3.org/2000/svg" xmlns:xlink="http://www.w3.org/1999/xlink" width="30" height="44" viewBox="0 0 30 44">
  <defs>
    <clipPath id="clip-path">
      <rect id="Rectangle_1065" data-name="Rectangle 1065" width="30" height="44" transform="translate(0 0.118)" fill="#fc720e" stroke="#fc720e" stroke-width="0.5"/>
    </clipPath>
  </defs>
  <g id="Group_1675" data-name="Group 1675" transform="translate(-289.635 -403.317)">
    <g id="Group_1674" data-name="Group 1674" transform="translate(289.635 403.2)">
      <g id="Group_1673" data-name="Group 1673" transform="translate(0 0)" clip-path="url(#clip-path)">
        <path id="Path_1792" data-name="Path 1792" d="M319.776,442.043v4.282a.725.725,0,1,1-1.45,0v-4.282a6.029,6.029,0,0,0-6.032-6.032,4.451,4.451,0,0,1-3.829-2.15.725.725,0,1,1,1.238-.754,3.012,3.012,0,0,0,2.591,1.455,7.477,7.477,0,0,1,7.482,7.482Zm-12.65-7.267a.725.725,0,0,1-.554.863,6.938,6.938,0,0,1-5.393-1.055,4.4,4.4,0,0,1-3.279,1.427,6.029,6.029,0,0,0-6.033,6.032v4.282a.725.725,0,1,1-1.45,0v-4.282a7.478,7.478,0,0,1,7.482-7.482,3.022,3.022,0,0,0,3.029-3.021v-.191a9.712,9.712,0,0,1-5.521-8.395,2.959,2.959,0,0,1-2.272-2.865v-3.758c-.039-1.839.234-6.446,3.593-9.684,4.148-4,10.8-3.745,15.691-1.39a.727.727,0,0,1,.153,1.207,9.783,9.783,0,0,1,5.987,4.308.8.8,0,0,1,.167.569.73.73,0,0,1-.208.46,4.735,4.735,0,0,0-1.37,3.344v4.945a.725.725,0,0,1-1.45,0v-4.945a6.173,6.173,0,0,1,1.408-3.941,8.372,8.372,0,0,0-6.01-3.528l-1.274-.137a.726.726,0,0,1-.2-1.391l.579-.239c-7.546-2.631-15.617.293-15.617,10.414v3.766a1.5,1.5,0,0,0,.816,1.326v-4.7a5.081,5.081,0,0,1,5.075-5.075h9.243a5.08,5.08,0,0,1,5.074,5.074v5.935a9.709,9.709,0,0,1-12.43,9.247,4.43,4.43,0,0,1-.379,1.48,5.487,5.487,0,0,0,4.279.844.725.725,0,0,1,.863.554Zm-2.029-3.935a8.255,8.255,0,0,0,8.246-8.246v-5.88a3.628,3.628,0,0,0-3.624-3.624h-9.243a3.628,3.628,0,0,0-3.625,3.625v5.88a8.255,8.255,0,0,0,8.246,8.246Zm7.34,12.493h-2.175a.725.725,0,0,0,0,1.45h2.175a.725.725,0,0,0,0-1.45Zm0,0" transform="translate(-290.097 -403.241)" fill="#fc720e" stroke="#fc720e" stroke-width="0.5"/>
      </g>
    </g>
  </g>
</svg>
