<svg xmlns="http://www.w3.org/2000/svg" width="48.214" height="63.544" viewBox="0 0 48.214 63.544">
  <g id="Group_1287" data-name="Group 1287" transform="translate(-137 -91.93)">
    <path id="Path_1704" data-name="Path 1704" d="M156.546,136.009l-3.484,3.509a.182.182,0,0,1-.132.055h0a.18.18,0,0,1-.131-.054l-1.294-1.294a.931.931,0,0,0-1.317,1.316l1.294,1.294a2.033,2.033,0,0,0,1.448.6h0a2.034,2.034,0,0,0,1.45-.6l3.484-3.509a.931.931,0,1,0-1.321-1.312Zm1.317-25.347a.931.931,0,0,0-1.317,0l-3.484,3.509a.183.183,0,0,1-.132.055h0a.18.18,0,0,1-.131-.054l-1.294-1.294a.931.931,0,1,0-1.317,1.316l1.294,1.294a2.033,2.033,0,0,0,1.448.6h0a2.034,2.034,0,0,0,1.45-.605l3.484-3.509a.931.931,0,0,0,0-1.316Zm0,12.671a.931.931,0,0,0-1.317,0l-3.484,3.509a.183.183,0,0,1-.132.055h0a.182.182,0,0,1-.131-.055l-1.294-1.294a.931.931,0,1,0-1.317,1.316l1.294,1.295a2.036,2.036,0,0,0,1.448.6h0a2.037,2.037,0,0,0,1.45-.6l3.484-3.509a.931.931,0,0,0,0-1.316Zm-5.835-13.712h-3.034a2.05,2.05,0,0,0-2.048,2.048v6.713a2.05,2.05,0,0,0,2.048,2.048h6.714a2.05,2.05,0,0,0,2.048-2.048v-2.355a.931.931,0,1,0-1.862,0v2.355a.186.186,0,0,1-.186.186h-6.714a.187.187,0,0,1-.186-.186v-6.713a.187.187,0,0,1,.186-.186h3.034a.931.931,0,1,0,0-1.862Zm28.546-15.78h-4.267a.931.931,0,0,0,0,1.862h4.267a2.78,2.78,0,0,1,2.778,2.778v52.354a2.781,2.781,0,0,1-2.778,2.778H141.639a2.781,2.781,0,0,1-2.778-2.778V98.481a2.781,2.781,0,0,1,2.778-2.778h7.05V97.55h-6.432a1.551,1.551,0,0,0-1.549,1.549V137.43a.931.931,0,0,0,1.862,0V99.412h4.423a2.782,2.782,0,0,0-.158.923v2.582a2.788,2.788,0,0,0,2.785,2.785h22.974a2.788,2.788,0,0,0,2.785-2.785v-2.582a2.782,2.782,0,0,0-.158-.923h4.423v40.81h-4.83a4.644,4.644,0,0,0-4.639,4.64v4.831h-27.6v-8.54a.931.931,0,1,0-1.862,0v8.852a1.551,1.551,0,0,0,1.549,1.549h28.848a.939.939,0,0,0,.658-.273l0,0,9.467-9.468a.942.942,0,0,0,.27-.6c0-.008,0-42.093,0-42.114a1.55,1.55,0,0,0-1.549-1.549h-6.432V94.967a3.041,3.041,0,0,0-3.037-3.037H151.726a3.041,3.041,0,0,0-2.82,1.911h-7.267A4.644,4.644,0,0,0,137,98.481v52.354a4.645,4.645,0,0,0,4.639,4.639h38.935a4.644,4.644,0,0,0,4.639-4.639V98.481a4.644,4.644,0,0,0-4.639-4.639Zm-8.538,54.534v-3.514a2.781,2.781,0,0,1,2.778-2.778h3.514ZM150.55,94.967a1.177,1.177,0,0,1,1.175-1.176h18.762a1.177,1.177,0,0,1,1.175,1.176v3.416a1.177,1.177,0,0,1-1.175,1.176H151.726a1.177,1.177,0,0,1-1.175-1.176Zm-1.854,5.367a.922.922,0,0,1,.281-.662,3.041,3.041,0,0,0,2.749,1.747h18.762a3.04,3.04,0,0,0,2.748-1.747.922.922,0,0,1,.281.662v2.582a.924.924,0,0,1-.923.924H149.62a.924.924,0,0,1-.923-.924Zm-1.75,30.719a2.05,2.05,0,0,0,2.048,2.048h6.714a2.05,2.05,0,0,0,2.048-2.048V128.7a.931.931,0,0,0-1.862,0v2.356a.187.187,0,0,1-.186.186h-6.714a.187.187,0,0,1-.186-.186V124.34a.187.187,0,0,1,.186-.186h3.034a.931.931,0,0,0,0-1.862h-3.034a2.05,2.05,0,0,0-2.048,2.048Zm14.114,5.771h13.276a.931.931,0,0,0,0-1.862H161.06a.931.931,0,0,0,0,1.862Zm-14.114,6.9a2.05,2.05,0,0,0,2.048,2.048h6.714a2.05,2.05,0,0,0,2.048-2.048V141.37a.931.931,0,0,0-1.862,0v2.355a.186.186,0,0,1-.186.186h-6.714a.187.187,0,0,1-.186-.186v-6.713a.187.187,0,0,1,.186-.186h3.034a.931.931,0,1,0,0-1.862h-3.034a2.05,2.05,0,0,0-2.048,2.048Zm14.114-3.176h7.691a.931.931,0,0,0,0-1.862H161.06a.931.931,0,0,0,0,1.862Zm0-12.671h7.691a.931.931,0,0,0,0-1.862H161.06a.931.931,0,0,0,0,1.862Zm0-3.723h13.276a.931.931,0,0,0,0-1.862H161.06a.931.931,0,0,0,0,1.862Zm0-8.948h13.276a.931.931,0,0,0,0-1.862H161.06a.931.931,0,0,0,0,1.862Zm0-3.723h13.276a.931.931,0,0,0,0-1.862H161.06a.931.931,0,0,0,0,1.862Zm0,0" transform="translate(0 0)" fill="#fe6701"/>
  </g>
</svg>
