<svg xmlns="http://www.w3.org/2000/svg" width="37.537" height="37.537" viewBox="0 0 37.537 37.537">
  <g id="Group_1679" data-name="Group 1679" transform="translate(-233.85 -409.4)">
    <path id="Path_1795" data-name="Path 1795" d="M269.9,425.235a1.787,1.787,0,0,0,.132-.67V411.352a1.8,1.8,0,0,0-1.8-1.8H253.82a1.8,1.8,0,0,0-1.8,1.8v13.213a1.787,1.787,0,0,1-1.2,2.4v3h-1.2v2.4h-1.2v1.949l-4.054,1.159a13.109,13.109,0,0,0-.751-1.2v-4.338a2.626,2.626,0,0,0,2.4-2.628V426.2l1.8-.6v-.433a10.5,10.5,0,0,0-1.329-4.1,2.463,2.463,0,0,0-.2-.326,3.3,3.3,0,0,0-1.17-6.389h-3.087a8.025,8.025,0,0,0-3.589,15.2l.369.185v1.014l-.359.134A6.884,6.884,0,0,0,234,437.178h0v9.61h12.012v-3.441l2.4-.861v4.3h7.808a1.8,1.8,0,0,0,1.8-1.8v-9.009h1.312a1.783,1.783,0,0,0-.111.6v7.207a1.8,1.8,0,0,0,1.8,1.8h7.207a1.8,1.8,0,0,0,1.8-1.8v-7.207a1.787,1.787,0,0,1,1.2-2.4v-7.207a1.8,1.8,0,0,0-1.333-1.732Zm-10.679-14.484h3.6v2.4h-3.6Zm-6.006.6a.6.6,0,0,1,.6-.6h4.2v3.6h6.006v-3.6h4.2a.6.6,0,0,1,.6.6v13.213a.6.6,0,0,1-.6.6H253.82a.6.6,0,0,1-.6-.6Zm12.012,15.015h1.2v1.2h-1.2Zm-9.61,0h1.2v1.2h-1.2Zm-4.8,4.8h5.405a.6.6,0,0,1,0,1.2h-5.405Zm-9.9,9.544,8.563-2.447.433-1.3a1.1,1.1,0,0,1,1.819-.43l.634.635h.943a1.108,1.108,0,0,1,1.107,1.107,1.127,1.127,0,0,1-.849,1.079l-9.743,3.489a5.655,5.655,0,0,1-1.905.33h-.806a5.656,5.656,0,0,1-2.209-.456Zm7.493-5.144v1.754l-2.934.838a12.944,12.944,0,0,0-.574-1.59Zm-1.835-10.828-1.768.59v1.986a1.451,1.451,0,0,1-1.45,1.45h-2.154v1.2h1.2v2.863a12.909,12.909,0,0,0-2.4-1.982v-4.734l-1.025-1.025a.6.6,0,0,1-.176-.425v-.1a.6.6,0,0,1,.6-.6h.6v-1.8a1.2,1.2,0,0,1,1.2-1.2h3.137a1.2,1.2,0,0,1,1.071.657,11.087,11.087,0,0,1,1.163,3.126ZM235.2,422.379a6.831,6.831,0,0,1,6.823-6.823h3.087a2.1,2.1,0,0,1,0,4.2h-3.9a2.4,2.4,0,0,0-2.4,2.4v.7a1.805,1.805,0,0,0-1.2,1.7v.1a1.791,1.791,0,0,0,.528,1.274l.673.673v1.767a6.776,6.776,0,0,1-3.6-6Zm3.667,9.636.46-.173a11.832,11.832,0,0,1,5,6.651l-3.333.952-.237-.709a5.088,5.088,0,0,0-3.61-3.342l-.291,1.165a3.894,3.894,0,0,1,2.761,2.557l.3.9-2.1,2.1c-.13-.093-.256-.192-.378-.3l-.265-.228a5.65,5.65,0,0,1,1.693-9.581Zm5.943,13.571H235.2v-4.422a6.85,6.85,0,0,0,1.191,1.343l.266.228a6.857,6.857,0,0,0,4.459,1.65h.806a6.845,6.845,0,0,0,2.311-.4l.577-.206Zm11.411,0h-6.607v-3.531l4.32-1.548a2.308,2.308,0,0,0-.622-4.531h-.446l-.283-.283a2.239,2.239,0,0,0-2.969-.224v-1.9h6.607a1.781,1.781,0,0,0,.6-.111v11.522a.6.6,0,0,1-.6.6Zm1.8-13.814a1.8,1.8,0,0,0-1.8-1.8h-4.2v-3a.6.6,0,0,1,.6-.6h1.8v2.4h3.6v-2.4h1.8a.6.6,0,0,1,.6.6v7.207a.6.6,0,0,1-.6.6h-1.8Zm10.811,12.012a.6.6,0,0,1-.6.6h-7.207a.6.6,0,0,1-.6-.6v-7.207a.6.6,0,0,1,.6-.6h1.8v2.4h3.6v-2.4h1.8a.6.6,0,0,1,.6.6Zm-4.8-7.808h1.2v1.2h-1.2Zm6.006-1.8a.6.6,0,0,1-.6.6h-7.207a.6.6,0,0,1-.6-.6v-7.207a.6.6,0,0,1,.6-.6h1.8v2.4h3.6v-2.4h1.8a.6.6,0,0,1,.6.6Zm0,0" transform="translate(0 0)" fill="#fc720e" stroke="#fc720e" stroke-width="0.3"/>
    <rect id="Rectangle_1067" data-name="Rectangle 1067" width="1" height="1" transform="translate(264 422.694)" fill="#fc720e" stroke="#fc720e" stroke-width="0.3"/>
    <rect id="Rectangle_1068" data-name="Rectangle 1068" width="2" height="1" transform="translate(266 422.694)" fill="#fc720e" stroke="#fc720e" stroke-width="0.3"/>
    <rect id="Rectangle_1069" data-name="Rectangle 1069" width="1" height="1" transform="translate(262 422.694)" fill="#fc720e" stroke="#fc720e" stroke-width="0.3"/>
    <rect id="Rectangle_1070" data-name="Rectangle 1070" width="6" height="1" transform="translate(262 420.694)" fill="#fc720e" stroke="#fc720e" stroke-width="0.3"/>
  </g>
</svg>
