<svg xmlns="http://www.w3.org/2000/svg" xmlns:xlink="http://www.w3.org/1999/xlink" width="42" height="36" viewBox="0 0 42 36">
  <defs>
    <clipPath id="clip-path">
      <rect id="Rectangle_1066" data-name="Rectangle 1066" width="42" height="36" transform="translate(-0.296 0.144)" fill="#fc720e" stroke="#fc720e" stroke-width="0.5"/>
    </clipPath>
  </defs>
  <g id="Group_1678" data-name="Group 1678" transform="translate(-178.704 -384.129)">
    <g id="Group_1677" data-name="Group 1677" transform="translate(179 383.986)">
      <g id="Group_1676" data-name="Group 1676" transform="translate(0 0)" clip-path="url(#clip-path)">
        <path id="Path_1793" data-name="Path 1793" d="M220.611,409.872a2.763,2.763,0,0,0-2.254-2V392.024h1.381a.69.69,0,0,0,.69-.69v-6.9a.69.69,0,0,0-.69-.691H189.357a.69.69,0,0,0-.69.691v6.9a.69.69,0,0,0,.69.69h1.381v13.809h-.691a8.892,8.892,0,0,0-4.833,1.415v-3.486a.69.69,0,0,0-.69-.69H179.69a.69.69,0,0,0-.69.69v15.88a.691.691,0,0,0,.69.691h4.833a.69.69,0,0,0,.69-.691v-3.485a8.9,8.9,0,0,0,4.833,1.414h11.338a9.089,9.089,0,0,0,2.326-.307l14.949-4a2.772,2.772,0,0,0,1.951-3.388Zm-30.564-24.753h29v5.524h-29Zm2.072,6.9h24.857V407.99l-8.014,2.149a2.775,2.775,0,0,0-1.826-1.6l-9.3-2.5a6.273,6.273,0,0,0-1.605-.207h-4.108Zm-8.286,26.928h-3.452v-14.5h3.452Zm34.469-7.026-14.947,4a7.678,7.678,0,0,1-1.97.26H190.047a7.544,7.544,0,0,1-4.557-1.519l-.276-.207V408.94l.276-.207a7.537,7.537,0,0,1,4.557-1.519h6.18a4.877,4.877,0,0,1,1.25.162l9.3,2.493a1.393,1.393,0,0,1,1.015,1.189.666.666,0,0,0,.028.084.681.681,0,0,0-.018.09,1.173,1.173,0,0,1-.046.332,1.381,1.381,0,0,1-1.331,1.021,1.361,1.361,0,0,1-.36-.046l-5.869-1.574a.69.69,0,1,0-.358,1.333l5.869,1.575a2.821,2.821,0,0,0,.719.092,2.757,2.757,0,0,0,2.657-2.028,2.475,2.475,0,0,0,.078-.423l8.417-2.257c.06-.015.125-.031.187-.041a1.381,1.381,0,0,1,1.511,1.016,1.35,1.35,0,0,1,.046.358,1.381,1.381,0,0,1-1.021,1.335Zm0,0" transform="translate(-179 -384.044)" fill="#fc720e" stroke="#fc720e" stroke-width="0.5"/>
      </g>
    </g>
    <path id="Path_1794" data-name="Path 1794" d="M427.588,497.076h6.9a.69.69,0,1,0,0-1.381h-6.9a.69.69,0,1,0,0,1.381Zm0,0" transform="translate(-226.494 -102.348)" fill="#fc720e" stroke="#fc720e" stroke-width="0.5"/>
  </g>
</svg>
