<svg xmlns="http://www.w3.org/2000/svg" width="26.767" height="21.892" viewBox="0 0 26.767 21.892">
  <g id="Group_1545" data-name="Group 1545" transform="translate(0 6)">
    <path id="Path_70" data-name="Path 70" d="M68.536,11.936H68.09V.3a3.639,3.639,0,0,0,1.676-3.062.392.392,0,0,0-.052-.195L66.6-8.4a1.233,1.233,0,0,0-1.068-.62h-18.3a1.233,1.233,0,0,0-1.068.62L43.052-2.953A.392.392,0,0,0,43-2.759,3.639,3.639,0,0,0,44.676.3V11.936H44.23a.392.392,0,1,0,0,.784H68.536a.392.392,0,0,0,0-.784ZM43.811-2.367h1.257a.392.392,0,0,0,.392-.392.392.392,0,0,0-.392-.392h-1l2.776-4.858a.447.447,0,0,1,.387-.225h18.3a.447.447,0,0,1,.387.225L68.7-3.151h-1a.392.392,0,0,0-.392.392.392.392,0,0,0,.392.392h1.257A2.86,2.86,0,0,1,66.127.1,2.86,2.86,0,0,1,63.3-2.367h2.723a.392.392,0,0,0,.392-.392.392.392,0,0,0-.392-.392H46.745a.392.392,0,0,0-.392.392.392.392,0,0,0,.392.392h2.723A2.86,2.86,0,0,1,46.64.1,2.86,2.86,0,0,1,43.811-2.367Zm18.648,0A2.86,2.86,0,0,1,59.631.1,2.86,2.86,0,0,1,56.8-2.367Zm-6.5,0A2.86,2.86,0,0,1,53.135.1a2.86,2.86,0,0,1-2.828-2.464ZM45.46.684a3.622,3.622,0,0,0,1.179.2,3.644,3.644,0,0,0,3.248-2,3.644,3.644,0,0,0,3.248,2,3.644,3.644,0,0,0,3.248-2,3.644,3.644,0,0,0,3.248,2,3.644,3.644,0,0,0,3.248-2,3.644,3.644,0,0,0,3.248,2,3.624,3.624,0,0,0,1.179-.2V11.936H65.995V2.27a.392.392,0,0,0-.392-.392H60.574a.392.392,0,0,0-.392.392v9.666H45.46ZM65.211,9.84H60.966V2.662h4.245Zm-4.245.784h4.245v1.311H60.966Z" transform="translate(-43 3.018)" fill="#fe6701"/>
    <path id="Path_71" data-name="Path 71" d="M126.852,199.4H115.537a.392.392,0,0,0-.392.392v7.962a.392.392,0,0,0,.392.392h11.315a.392.392,0,0,0,.392-.392v-7.962A.392.392,0,0,0,126.852,199.4Zm-.392,7.962H115.929v-7.178H126.46Z" transform="translate(-111.373 -192.256)" fill="#fe6701"/>
  </g>
</svg>
