<svg xmlns="http://www.w3.org/2000/svg" xmlns:xlink="http://www.w3.org/1999/xlink" width="49" height="49" viewBox="0 0 49 49">
  <defs>
    <clipPath id="clip-path">
      <rect id="Rectangle_728" data-name="Rectangle 728" width="49" height="49" transform="translate(0 -0.421)" fill="#fe6701"/>
    </clipPath>
  </defs>
  <g id="Group_1756" data-name="Group 1756" transform="translate(2902 14311)">
    <g id="Group_1751" data-name="Group 1751" transform="translate(-3112.946 -14292.528)">
      <g id="Group_1097" data-name="Group 1097" transform="translate(210.946 -18.051)">
        <g id="Group_1096" data-name="Group 1096" transform="translate(0 0)" clip-path="url(#clip-path)">
          <path id="Path_1671" data-name="Path 1671" d="M257.279,20.4l-6.956-6.956a11.59,11.59,0,0,0,.058-10.357v-16.6a3.212,3.212,0,0,0-3.208-3.208h-25.1a3.211,3.211,0,0,0-3.208,3.208v2.831h-5.661A3.212,3.212,0,0,0,210-7.478V28.375a3.212,3.212,0,0,0,3.208,3.208h27.927a3.212,3.212,0,0,0,3.208-3.208v-2.83h2.83a3.214,3.214,0,0,0,3.024-2.139l2.038,2.037a3.566,3.566,0,0,0,5.044-5.044ZM220.756-13.516a1.322,1.322,0,0,1,1.321-1.321h25.1a1.322,1.322,0,0,1,1.321,1.321V.356c-.1-.1-.193-.205-.294-.306A11.48,11.48,0,0,0,244.343-2.5V-7.478a3.212,3.212,0,0,0-3.208-3.208H220.756Zm-.048,2.831H220.7c0-.012.009-.011.013,0Zm-1.779,0h-.012c0-.01.008-.012.012,0Zm23.527,39.06a1.322,1.322,0,0,1-1.321,1.321H213.208a1.322,1.322,0,0,1-1.321-1.321V-7.478A1.322,1.322,0,0,1,213.208-8.8h27.927a1.322,1.322,0,0,1,1.321,1.321V-3.07A11.533,11.533,0,0,0,229.906,2.7H216.039a.943.943,0,0,0,0,1.887h13.053a11.615,11.615,0,0,0-.506,4.919H216.039a.943.943,0,0,0,0,1.887h12.919a11.517,11.517,0,0,0,11.085,8.346,11.642,11.642,0,0,0,2.413-.253ZM233.221,15.03a9.649,9.649,0,1,1,13.645,0,9.659,9.659,0,0,1-13.645,0Zm15.274,7.307a1.322,1.322,0,0,1-1.321,1.321h-2.83V18.911q.475-.191.936-.424l3.215,3.215Zm7.451,1.772a1.678,1.678,0,0,1-2.375,0l-6.644-6.643A11.557,11.557,0,0,0,249.3,15.09l6.643,6.643a1.681,1.681,0,0,1,0,2.375Zm0,0" transform="translate(-210.051 17.032)" fill="#fe6701"/>
        </g>
      </g>
      <path id="Path_1672" data-name="Path 1672" d="M469.352,189.085a.944.944,0,0,0-1.334,0l-3.308,3.308-1.29-1.29a.944.944,0,0,0-1.334,0l-2.565,2.564a.944.944,0,0,0,0,1.335l4.521,4.521a.944.944,0,0,0,1.334,0l6.539-6.539a.945.945,0,0,0,0-1.334Zm-4.642,8.436-3.187-3.187,1.23-1.23,1.29,1.29a.944.944,0,0,0,1.334,0l3.308-3.308,1.23,1.23Zm0,0" transform="translate(-224.781 -187.115)" fill="#fe6701"/>
      <path id="Path_1673" data-name="Path 1673" d="M264.826,334.238h13.2a.943.943,0,0,0,0-1.887h-13.2a.943.943,0,1,0,0,1.887Zm0,0" transform="translate(-47.892 -317.084)" fill="#fe6701"/>
      <path id="Path_1674" data-name="Path 1674" d="M456.517,404.319a.944.944,0,1,0,.667.276.951.951,0,0,0-.667-.276Zm0,0" transform="translate(-221.456 -382.246)" fill="#fe6701"/>
      <path id="Path_1675" data-name="Path 1675" d="M279.161,404.319H264.826a.943.943,0,0,0,0,1.887h14.335a.943.943,0,1,0,0-1.887Zm0,0" transform="translate(-47.892 -382.246)" fill="#fe6701"/>
      <path id="Path_1676" data-name="Path 1676" d="M264.826,118.862h14.31a.943.943,0,1,0,0-1.887h-14.31a.943.943,0,0,0,0,1.887Zm0,0" transform="translate(-47.892 -122.075)" fill="#fe6701"/>
    </g>
  </g>
</svg>
