<svg xmlns="http://www.w3.org/2000/svg" xmlns:xlink="http://www.w3.org/1999/xlink" width="52" height="50" viewBox="0 0 52 50">
  <defs>
    <clipPath id="clip-path">
      <rect id="Rectangle_55" data-name="Rectangle 55" width="52" height="50" transform="translate(0 -0.167)" fill="#fe6701"/>
    </clipPath>
  </defs>
  <g id="Group_1755" data-name="Group 1755" transform="translate(2908 14420)">
    <g id="Group_1752" data-name="Group 1752" transform="translate(-2908 -14419.833)">
      <g id="Group_23" data-name="Group 23" transform="translate(0 0)">
        <g id="Group_22" data-name="Group 22" transform="translate(0 0)" clip-path="url(#clip-path)">
          <path id="Path_49" data-name="Path 49" d="M788.99,339.725H787.8v-.9a4.755,4.755,0,0,0-2.545-4.176,5.387,5.387,0,0,0-5.119,0,4.754,4.754,0,0,0-2.545,4.176v.9h-11.82v-.9a4.754,4.754,0,0,0-2.546-4.176,5.387,5.387,0,0,0-5.119,0,4.755,4.755,0,0,0-2.545,4.176v.9h-1.188A5.228,5.228,0,0,0,749,344.78v25.84a5.228,5.228,0,0,0,5.375,5.055H788.99a5.228,5.228,0,0,0,5.375-5.055V344.78a5.228,5.228,0,0,0-5.375-5.055Zm-9.247-.9a2.751,2.751,0,0,1,1.472-2.42,3.118,3.118,0,0,1,2.965,0,2.752,2.752,0,0,1,1.472,2.42v3.79h-5.91v-3.79Zm-22.029,0a2.752,2.752,0,0,1,1.472-2.42,3.117,3.117,0,0,1,2.965,0,2.75,2.75,0,0,1,1.472,2.42v3.79h-5.909Zm-3.338,2.924h1.188v1.876a1.044,1.044,0,0,0,1.075,1.011h8.06a1.044,1.044,0,0,0,1.075-1.011v-1.876h11.82v1.876a1.044,1.044,0,0,0,1.075,1.011h8.059a1.044,1.044,0,0,0,1.075-1.011v-1.876h1.188a3.137,3.137,0,0,1,3.225,3.033V349.8H751.15V344.78a3.137,3.137,0,0,1,3.225-3.033Zm34.615,31.905H754.375a3.137,3.137,0,0,1-3.225-3.033v-18.8h41.065v18.8a3.137,3.137,0,0,1-3.225,3.033Zm0,0" transform="translate(-746.176 -329.227)" fill="#fe6701"/>
        </g>
      </g>
    </g>
    <g id="Group_1753" data-name="Group 1753" transform="translate(-2900.061 -14394.882)">
      <g id="Group_1534" data-name="Group 1534" transform="translate(0 0)">
        <path id="Path_1757" data-name="Path 1757" d="M370.166,428.346h5.164a1.033,1.033,0,1,0,0-2.066h-5.164a1.033,1.033,0,1,0,0,2.066Zm0,0" transform="translate(-369.133 -426.28)" fill="#fe6701"/>
        <path id="Path_1758" data-name="Path 1758" d="M370.166,428.346h5.164a1.033,1.033,0,1,0,0-2.066h-5.164a1.033,1.033,0,1,0,0,2.066Zm0,0" transform="translate(-359.889 -426.28)" fill="#fe6701"/>
        <path id="Path_1759" data-name="Path 1759" d="M370.166,428.346h5.164a1.033,1.033,0,1,0,0-2.066h-5.164a1.033,1.033,0,1,0,0,2.066Zm0,0" transform="translate(-350.644 -426.28)" fill="#fe6701"/>
        <path id="Path_1760" data-name="Path 1760" d="M370.166,428.346h5.164a1.033,1.033,0,1,0,0-2.066h-5.164a1.033,1.033,0,1,0,0,2.066Zm0,0" transform="translate(-341.4 -426.28)" fill="#fe6701"/>
      </g>
      <g id="Group_1535" data-name="Group 1535" transform="translate(0 4.622)">
        <path id="Path_1757-2" data-name="Path 1757" d="M370.166,428.346h5.164a1.033,1.033,0,1,0,0-2.066h-5.164a1.033,1.033,0,1,0,0,2.066Zm0,0" transform="translate(-369.133 -426.28)" fill="#fe6701"/>
        <path id="Path_1758-2" data-name="Path 1758" d="M370.166,428.346h5.164a1.033,1.033,0,1,0,0-2.066h-5.164a1.033,1.033,0,1,0,0,2.066Zm0,0" transform="translate(-359.889 -426.28)" fill="#fe6701"/>
        <path id="Path_1759-2" data-name="Path 1759" d="M370.166,428.346h5.164a1.033,1.033,0,1,0,0-2.066h-5.164a1.033,1.033,0,1,0,0,2.066Zm0,0" transform="translate(-350.644 -426.28)" fill="#fe6701"/>
        <path id="Path_1760-2" data-name="Path 1760" d="M370.166,428.346h5.164a1.033,1.033,0,1,0,0-2.066h-5.164a1.033,1.033,0,1,0,0,2.066Zm0,0" transform="translate(-341.4 -426.28)" fill="#fe6701"/>
      </g>
      <g id="Group_1536" data-name="Group 1536" transform="translate(0 9.244)">
        <path id="Path_1757-3" data-name="Path 1757" d="M370.166,428.346h5.164a1.033,1.033,0,1,0,0-2.066h-5.164a1.033,1.033,0,1,0,0,2.066Zm0,0" transform="translate(-369.133 -426.28)" fill="#fe6701"/>
        <path id="Path_1758-3" data-name="Path 1758" d="M370.166,428.346h5.164a1.033,1.033,0,1,0,0-2.066h-5.164a1.033,1.033,0,1,0,0,2.066Zm0,0" transform="translate(-359.889 -426.28)" fill="#fe6701"/>
        <path id="Path_1759-3" data-name="Path 1759" d="M370.166,428.346h5.164a1.033,1.033,0,1,0,0-2.066h-5.164a1.033,1.033,0,1,0,0,2.066Zm0,0" transform="translate(-350.644 -426.28)" fill="#fe6701"/>
        <path id="Path_1760-3" data-name="Path 1760" d="M370.166,428.346h5.164a1.033,1.033,0,1,0,0-2.066h-5.164a1.033,1.033,0,1,0,0,2.066Zm0,0" transform="translate(-341.4 -426.28)" fill="#fe6701"/>
      </g>
      <g id="Group_1537" data-name="Group 1537" transform="translate(0 13.867)">
        <path id="Path_1757-4" data-name="Path 1757" d="M370.166,428.346h5.164a1.033,1.033,0,1,0,0-2.066h-5.164a1.033,1.033,0,1,0,0,2.066Zm0,0" transform="translate(-369.133 -426.28)" fill="#fe6701"/>
        <path id="Path_1758-4" data-name="Path 1758" d="M370.166,428.346h5.164a1.033,1.033,0,1,0,0-2.066h-5.164a1.033,1.033,0,1,0,0,2.066Zm0,0" transform="translate(-359.889 -426.28)" fill="#fe6701"/>
        <path id="Path_1759-4" data-name="Path 1759" d="M370.166,428.346h5.164a1.033,1.033,0,1,0,0-2.066h-5.164a1.033,1.033,0,1,0,0,2.066Zm0,0" transform="translate(-350.644 -426.28)" fill="#fe6701"/>
        <path id="Path_1760-4" data-name="Path 1760" d="M370.166,428.346h5.164a1.033,1.033,0,1,0,0-2.066h-5.164a1.033,1.033,0,1,0,0,2.066Zm0,0" transform="translate(-341.4 -426.28)" fill="#fe6701"/>
      </g>
    </g>
  </g>
</svg>
