<svg xmlns="http://www.w3.org/2000/svg" xmlns:xlink="http://www.w3.org/1999/xlink" width="53" height="46" viewBox="0 0 53 46">
  <defs>
    <clipPath id="clip-path">
      <rect id="Rectangle_52" data-name="Rectangle 52" width="53" height="46" transform="translate(0.333 0.476)" fill="#fe6701"/>
    </clipPath>
  </defs>
  <g id="Group_1759" data-name="Group 1759" transform="translate(2907 14205)">
    <g id="Group_1758" data-name="Group 1758">
      <g id="Group_1757" data-name="Group 1757">
        <g id="Group_1750" data-name="Group 1750" transform="translate(-3608.333 -14513.063)">
          <g id="Group_17" data-name="Group 17" transform="translate(701 307.586)">
            <g id="Group_16" data-name="Group 16" transform="translate(0 0)" clip-path="url(#clip-path)">
              <path id="Path_15" data-name="Path 15" d="M1072.647,548.158a3.132,3.132,0,1,0-3.131-3.131,3.135,3.135,0,0,0,3.131,3.131Zm0-4.817a1.686,1.686,0,1,1-1.685,1.686,1.687,1.687,0,0,1,1.685-1.686Zm0,0" transform="translate(-1032.282 -518.445)" fill="#fe6701"/>
              <path id="Path_16" data-name="Path 16" d="M752.406,314.573a1.675,1.675,0,0,0-1.779.189l-5.244,4.111a1.2,1.2,0,0,1-1.487,0l-5.609-4.4a2.646,2.646,0,0,0-3.272,0l-4.924,3.863a9.35,9.35,0,0,0-18.7.014c0,.026,0,.051,0,.077l-4.663-3.662A1.687,1.687,0,0,0,704,316.092v22.65a.723.723,0,0,0,1.446,0v-22.65a.241.241,0,0,1,.39-.19l5.228,4.105a2.631,2.631,0,0,0,.519.318q.075.381.178.745v30.516l-5.484-4.307a2.156,2.156,0,0,1-.83-1.706v-3.458a.723.723,0,1,0-1.446,0v3.458a3.592,3.592,0,0,0,1.382,2.843l5.681,4.462a2.644,2.644,0,0,0,3.274,0l5.6-4.4a1.2,1.2,0,0,1,1.488,0l5.605,4.4a2.645,2.645,0,0,0,3.273,0l5.607-4.4a1.2,1.2,0,0,1,1.487,0l5.609,4.4a2.646,2.646,0,0,0,3.271,0l5.7-4.464a3.593,3.593,0,0,0,1.385-2.845V316.09a1.675,1.675,0,0,0-.949-1.517Zm-16.054,20.009a6.013,6.013,0,1,1,12.027,0c0,2.976-1.91,4.988-3.757,6.934a19.189,19.189,0,0,0-2.249,2.664,18.8,18.8,0,0,0-2.269-2.692c-1.845-1.94-3.752-3.946-3.752-6.906Zm-15.612-24.136a7.913,7.913,0,0,1,7.9,7.9,8.7,8.7,0,0,1-.584,3.146.712.712,0,0,0-.092.232,19.354,19.354,0,0,1-4.191,5.643,22.268,22.268,0,0,0-3.029,3.659,21.826,21.826,0,0,0-3.052-3.7c-1.849-1.944-3.745-3.94-4.51-6.537a.714.714,0,0,0-.027-.09,8.611,8.611,0,0,1-.325-2.358,7.913,7.913,0,0,1,7.9-7.9Zm1.574,36.9a2.652,2.652,0,0,0-.867-.45V336.134a.723.723,0,0,0-1.446,0v10.734a2.651,2.651,0,0,0-.96.479l-5.6,4.4a1.205,1.205,0,0,1-.239.146V324.21a28.514,28.514,0,0,0,3.444,4.122c1.5,1.58,2.921,3.073,3.4,4.641a.723.723,0,0,0,.686.512h.005a.723.723,0,0,0,.689-.5c.5-1.561,1.907-3.044,3.4-4.615a31.764,31.764,0,0,0,3.128-3.656v27.056l-.034-.024Zm7.093,4.4-.007.006V322.042a10.225,10.225,0,0,0,.511-1.78,2.688,2.688,0,0,0,.389-.253l5.589-4.385v15.262a7.412,7.412,0,0,0-.984,3.695,8.151,8.151,0,0,0,.984,3.88v8.431a2.65,2.65,0,0,0-.875.453Zm22.5-6.17a2.157,2.157,0,0,1-.831,1.707l-5.7,4.464a1.2,1.2,0,0,1-1.487,0l-5.609-4.4a2.654,2.654,0,0,0-.951-.475v-6.285c.554.673,1.148,1.3,1.72,1.9a10.485,10.485,0,0,1,2.618,3.561.722.722,0,0,0,.686.512h.005a.723.723,0,0,0,.688-.5,10.74,10.74,0,0,1,2.617-3.542c1.947-2.051,4.154-4.377,4.154-7.93a7.455,7.455,0,0,0-12.489-5.5v-13.51c.02.014.039.027.058.042l5.609,4.4a2.646,2.646,0,0,0,3.271,0l5.244-4.111a.241.241,0,0,1,.389.19Zm0,0" transform="translate(-702 -308)" fill="#fe6701"/>
            </g>
          </g>
          <path id="Path_17" data-name="Path 17" d="M816.507,351.552A6.507,6.507,0,1,0,810,345.046a6.514,6.514,0,0,0,6.507,6.507Zm0-11.568a5.061,5.061,0,1,1-5.061,5.061,5.066,5.066,0,0,1,5.061-5.061Zm0,0" transform="translate(-96.782 -27.106)" fill="#fe6701"/>
          <path id="Path_18" data-name="Path 18" d="M843.615,375.769A3.615,3.615,0,1,0,840,372.154a3.619,3.619,0,0,0,3.615,3.615Zm0-5.784a2.169,2.169,0,1,1-2.169,2.169,2.171,2.171,0,0,1,2.169-2.169Zm0,0" transform="translate(-123.89 -54.214)" fill="#fe6701"/>
        </g>
      </g>
    </g>
  </g>
</svg>
